<?xml version="1.0" encoding="UTF-8"?>
<svg version="1.1" xmlns="http://www.w3.org/2000/svg" width="612" height="408">
<path d="M0 0 C14.85031927 13.69866186 22.15679743 33.70167953 22.96875 53.57421875 C22.00124503 74.78676512 13.6815401 91.22012617 -0.1875 106.75 C-8.66413046 116.64971441 -11.81789906 128.39610523 -13.07470703 141.0847168 C-13.16606934 141.90625244 -13.25743164 142.72778809 -13.3515625 143.57421875 C-13.41811035 144.30729248 -13.4846582 145.04036621 -13.55322266 145.7956543 C-14.44732496 148.55057692 -15.73084297 149.25874803 -18.1875 150.75 C-20.79208374 151.13095093 -20.79208374 151.13095093 -23.77880859 151.13818359 C-24.90032318 151.14764008 -26.02183777 151.15709656 -27.17733765 151.1668396 C-28.3846756 151.16076691 -29.59201355 151.15469421 -30.8359375 151.1484375 C-32.70386459 151.15274277 -32.70386459 151.15274277 -34.60952759 151.15713501 C-37.2442347 151.15917695 -39.87810743 151.15514765 -42.51269531 151.14111328 C-45.20918601 151.1274441 -47.90507207 151.12739775 -50.6015625 151.14111328 C-54.49237118 151.15967267 -58.38260449 151.15739148 -62.2734375 151.1484375 C-63.47672699 151.15451019 -64.68001648 151.16058289 -65.91976929 151.1668396 C-76.40402114 151.07893175 -76.40402114 151.07893175 -81.1875 147.75 C-85.05089004 142.67501427 -86.14769318 135.41032137 -87.68359375 129.35742188 C-89.37712385 122.76332239 -91.39564699 116.43777952 -95.1875 110.75 C-98.82914448 109.78467519 -102.42964303 109.5480853 -106.1875 109.75 C-108.50028117 111.47937829 -108.50028117 111.47937829 -110.1875 113.75 C-114.31877587 115.5096175 -116.22798247 116.09397798 -120.5 114.5625 C-123.1875 112.75 -123.1875 112.75 -125.1875 109.75 C-125.65547583 105.53821757 -125.65315795 103.46400886 -123.3125 99.875 C-121.1875 97.75 -121.1875 97.75 -119.1875 96.75 C-117.12890625 96.765625 -117.12890625 96.765625 -114.75 97 C-113.57630859 97.10054687 -113.57630859 97.10054687 -112.37890625 97.203125 C-109.79737038 97.84735855 -108.79756244 98.65847194 -107.1875 100.75 C-107.1875 101.41 -107.1875 102.07 -107.1875 102.75 C-106.1975 102.42 -105.2075 102.09 -104.1875 101.75 C-104.65800781 101.23050781 -105.12851563 100.71101563 -105.61328125 100.17578125 C-106.23589844 99.47839844 -106.85851562 98.78101563 -107.5 98.0625 C-108.11488281 97.37800781 -108.72976562 96.69351563 -109.36328125 95.98828125 C-111.1875 93.75 -111.1875 93.75 -112.4609375 91.01953125 C-114.06717409 88.38732635 -114.06717409 88.38732635 -117.55078125 88.0859375 C-125.70269793 87.71785407 -125.70269793 87.71785407 -132.625 91.25 C-135.31098051 93.87046879 -135.78679953 94.18233877 -139.3125 94.375 C-143.1875 93.75 -143.1875 93.75 -145.6875 91.8125 C-147.7056123 87.6921874 -148.13687868 84.25324752 -147.1875 79.75 C-145.0648952 77.0304126 -143.63115431 75.99585004 -140.21484375 75.4140625 C-136.98500675 75.25709846 -134.60481358 75.52529269 -131.75 77.0625 C-130.1875 78.75 -130.1875 78.75 -129.1875 81.75 C-124.8975 82.08 -120.6075 82.41 -116.1875 82.75 C-116.661875 81.925 -117.13625 81.1 -117.625 80.25 C-119.42319599 76.22204099 -119.8109255 73.11826421 -120.1875 68.75 C-120.8475 68.75 -121.5075 68.75 -122.1875 68.75 C-123.73828125 67.17578125 -123.73828125 67.17578125 -125.5 65.0625 C-127.62394684 62.55197706 -129.74251344 60.14176579 -132.125 57.875 C-134.1875 55.75 -134.1875 55.75 -134.1875 53.75 C-135.239375 53.976875 -136.29125 54.20375 -137.375 54.4375 C-141.63142602 54.78638738 -142.95118055 54.43152183 -146.1875 51.75 C-148.51152951 48.54062591 -148.66320691 45.63493979 -148.1875 41.75 C-146.38756226 39.05009338 -145.103727 37.2081135 -142.1875 35.75 C-135.0572639 35.28998477 -135.0572639 35.28998477 -131.95703125 36.9296875 C-129.59343611 39.36111208 -129.75457863 40.78260221 -129.75 44.125 C-129.52536659 48.27249982 -129.44608542 49.41656091 -126.8125 52.8125 C-124.97104783 54.17166708 -123.09183779 55.48044148 -121.1875 56.75 C-121.249375 55.574375 -121.31125 54.39875 -121.375 53.1875 C-121.25497228 33.98306496 -112.97319043 15.67681618 -99.75 2 C-72.0261183 -24.64312021 -29.2719143 -23.88725688 0 0 Z M-33.1875 3.75 C-34.22514246 5.11808217 -35.21539545 6.52209778 -36.1875 7.9375 C-36.81785156 8.85015625 -37.44820312 9.7628125 -38.09765625 10.703125 C-38.78730469 11.70859375 -39.47695312 12.7140625 -40.1875 13.75 C-41.66536141 15.89673249 -43.14456711 18.04254005 -44.625 20.1875 C-45.00519287 20.73873535 -45.38538574 21.2899707 -45.77709961 21.85791016 C-48.21618362 25.38246663 -50.71192926 28.85873315 -53.25 32.3125 C-56.76137842 37.10137792 -60.04508315 42.01784523 -63.31640625 46.97265625 C-65.3385523 49.97421334 -67.47417022 52.85765847 -69.66796875 55.734375 C-71.50506905 58.1712484 -73.29104381 60.63999132 -75.0625 63.125 C-75.65804687 63.95773438 -76.25359375 64.79046875 -76.8671875 65.6484375 C-78.36482604 67.61860396 -78.36482604 67.61860396 -78.1875 69.75 C-70.2675 70.08 -62.3475 70.41 -54.1875 70.75 C-55.44106272 78.76448394 -56.99243951 86.58027893 -59 94.4375 C-59.38986084 95.98691284 -59.38986084 95.98691284 -59.78759766 97.56762695 C-61.57737047 104.59763235 -63.51409729 111.57183738 -65.71411133 118.48510742 C-66.80990704 122.01348808 -67.42797071 125.05099471 -67.1875 128.75 C-66.5275 128.75 -65.8675 128.75 -65.1875 128.75 C-63.95759351 127.08702559 -63.95759351 127.08702559 -62.796875 124.91015625 C-62.33410156 124.09353516 -61.87132812 123.27691406 -61.39453125 122.43554688 C-60.91371094 121.56994141 -60.43289062 120.70433594 -59.9375 119.8125 C-56.65731889 113.95633179 -53.27562554 108.26102958 -49.50317383 102.70678711 C-47.97725136 100.43729953 -46.59143594 98.09641105 -45.1875 95.75 C-43.72313089 93.57097562 -42.24788078 91.40554797 -40.75 89.25 C-40.36779297 88.69441406 -39.98558594 88.13882813 -39.59179688 87.56640625 C-37.83170983 85.02638251 -36.03346918 82.55954103 -34.08984375 80.15625 C-32.20588385 77.7732535 -30.72490298 75.36742858 -29.1875 72.75 C-27.54714448 70.2115927 -25.86736332 67.69988382 -24.1875 65.1875 C-23.74921875 64.52814453 -23.3109375 63.86878906 -22.859375 63.18945312 C-22.43140625 62.54814453 -22.0034375 61.90683594 -21.5625 61.24609375 C-21.15386719 60.63362793 -20.74523437 60.02116211 -20.32421875 59.39013672 C-19.1875 57.75 -19.1875 57.75 -17.375 55.53515625 C-15.81826064 53.55226759 -15.81826064 53.55226759 -16.1875 49.75 C-29.0575 49.255 -29.0575 49.255 -42.1875 48.75 C-41.259375 45.099375 -40.33125 41.44875 -39.375 37.6875 C-36.54293789 26.43918879 -34.0616886 15.20146428 -32.1875 3.75 C-32.5175 3.75 -32.8475 3.75 -33.1875 3.75 Z M-140.1875 41.75 C-140.5175 43.4 -140.8475 45.05 -141.1875 46.75 C-140.1975 47.08 -139.2075 47.41 -138.1875 47.75 C-137.1975 47.09 -136.2075 46.43 -135.1875 45.75 C-135.8475 44.43 -136.5075 43.11 -137.1875 41.75 C-138.1775 41.75 -139.1675 41.75 -140.1875 41.75 Z M-140.1875 81.75 C-140.5175 83.07 -140.8475 84.39 -141.1875 85.75 C-139.2075 86.74 -139.2075 86.74 -137.1875 87.75 C-136.07913577 85.86683841 -136.07913577 85.86683841 -135.1875 83.75 C-135.5175 83.09 -135.8475 82.43 -136.1875 81.75 C-137.5075 81.75 -138.8275 81.75 -140.1875 81.75 Z M-117.1875 103.75 C-117.5175 105.07 -117.8475 106.39 -118.1875 107.75 C-116.8675 108.08 -115.5475 108.41 -114.1875 108.75 C-114.5175 107.1 -114.8475 105.45 -115.1875 103.75 C-115.8475 103.75 -116.5075 103.75 -117.1875 103.75 Z " fill="#FDC103" transform="translate(236.1875,110.25)"/>
<path d="M0 0 C4.64325606 2.71989895 8.00615768 6.95370001 10.6875 11.5625 C11.6875 16.5625 11.6875 16.5625 11.6875 30.5625 C1.7875 30.8925 -8.1125 31.2225 -18.3125 31.5625 C-15.64683244 36.5197954 -15.64683244 36.5197954 -11.3125 38.5625 C-5.83501424 39.35529399 -1.17197436 38.50151718 3.86328125 36.31640625 C5.6875 35.5625 5.6875 35.5625 9.6875 34.5625 C9.6875 38.5225 9.6875 42.4825 9.6875 46.5625 C3.63477836 50.14929801 -1.46399893 50.99450901 -8.375 51.0625 C-9.13022949 51.08054688 -9.88545898 51.09859375 -10.66357422 51.1171875 C-16.30016538 51.05838368 -20.62932698 49.7417521 -25.3125 46.5625 C-30.84365829 40.78574974 -33.28977071 33.70494054 -33.6875 25.8125 C-33.48839724 17.63684291 -30.64987611 9.90874308 -24.92578125 4 C-17.81693826 -2.33427172 -8.95918736 -3.78238066 0 0 Z M-17.3125 12.5625 C-19.02055274 15.24658288 -19.3125 16.32419533 -19.3125 19.5625 C-13.3725 19.5625 -7.4325 19.5625 -1.3125 19.5625 C-0.80296042 14.64267755 -0.80296042 14.64267755 -3.4375 11.8125 C-8.90091762 7.53678186 -12.45555789 7.57064283 -17.3125 12.5625 Z " fill="#364E60" transform="translate(350.3125,185.4375)"/>
<path d="M0 0 C4.66593505 2.92506558 7.19624077 6.02192718 8.4375 11.421875 C9.87912779 19.03637885 9.27167235 26.74161007 8.9375 34.4375 C8.87912926 35.98173042 8.82182929 37.52600171 8.765625 39.0703125 C8.6269174 42.81829341 8.47375365 46.56542419 8.3125 50.3125 C4.6825 50.3125 1.0525 50.3125 -2.6875 50.3125 C-3.3475 48.9925 -4.0075 47.6725 -4.6875 46.3125 C-5.71037109 47.28703125 -5.71037109 47.28703125 -6.75390625 48.28125 C-11.89477755 51.84084131 -17.66737361 51.0190876 -23.6875 50.3125 C-27.77034157 48.8522136 -30.46996414 45.98333619 -32.6875 42.3125 C-33.49330086 36.28714222 -33.47682403 30.39344517 -31.3125 24.6875 C-24.03927784 18.10696566 -15.12385892 17.60831062 -5.6875 17.3125 C-5.6875 15.3325 -5.6875 13.3525 -5.6875 11.3125 C-12.34930606 9.18072206 -17.51733084 10.34167781 -23.6875 13.3125 C-25.3375 13.9725 -26.9875 14.6325 -28.6875 15.3125 C-28.6875 11.0225 -28.6875 6.7325 -28.6875 2.3125 C-20.07257901 -2.52394687 -9.29992954 -4.26682161 0 0 Z M-12.75 27.75 C-13.62785156 28.01683594 -14.50570313 28.28367188 -15.41015625 28.55859375 C-17.6836901 29.25082002 -17.6836901 29.25082002 -19.6875 30.3125 C-19.93765873 33.72892759 -19.93765873 33.72892759 -19.6875 37.3125 C-16.19945905 39.63786063 -14.78609246 39.64707898 -10.6875 39.3125 C-7.34484795 38.10543121 -6.74045434 37.39193151 -4.6875 34.3125 C-4.44694532 32.25540404 -4.44694532 32.25540404 -4.5625 30.125 C-4.624375 28.2378125 -4.624375 28.2378125 -4.6875 26.3125 C-7.74236516 26.3125 -9.84670598 26.85634985 -12.75 27.75 Z " fill="#334B5E" transform="translate(510.6875,185.6875)"/>
<path d="M0 0 C4.62 0 9.24 0 14 0 C14 18.15 14 36.3 14 55 C21.92 55 29.84 55 38 55 C39 56 39 56 39.1328125 58.46875 C39.13023437 59.4690625 39.12765625 60.469375 39.125 61.5 C39.12886719 63.00046875 39.12886719 63.00046875 39.1328125 64.53125 C39 67 39 67 38 68 C35.27275721 68.10099488 32.57137477 68.13970529 29.84375 68.1328125 C28.61754944 68.13424759 28.61754944 68.13424759 27.36657715 68.13571167 C25.63484622 68.13639345 23.90311276 68.13453929 22.17138672 68.13037109 C19.51133518 68.12502279 16.8514525 68.13031612 14.19140625 68.13671875 C12.51302046 68.13605797 10.83463477 68.1347768 9.15625 68.1328125 C8.35521851 68.13483673 7.55418701 68.13686096 6.72888184 68.13894653 C1.11495079 68.11495079 1.11495079 68.11495079 0 67 C-0.09417773 64.91380978 -0.11742878 62.82439523 -0.11352539 60.73608398 C-0.11367142 60.08244873 -0.11381744 59.42881348 -0.1139679 58.75537109 C-0.11326883 56.58557872 -0.10547678 54.41587121 -0.09765625 52.24609375 C-0.09579205 50.74536689 -0.09436816 49.24463943 -0.09336853 47.74391174 C-0.08954352 43.78681774 -0.0797134 39.82976022 -0.06866455 35.87268066 C-0.05845006 31.83765151 -0.05387083 27.80261647 -0.04882812 23.76757812 C-0.0380911 15.84503344 -0.02049445 7.92252546 0 0 Z " fill="#465B6C" transform="translate(276,168)"/>
<path d="M0 0 C1.50433594 0.01353516 1.50433594 0.01353516 3.0390625 0.02734375 C3.80992187 0.03894531 4.58078125 0.05054688 5.375 0.0625 C7.29524768 3.90299536 5.80649256 8.93934882 5.375 13.0625 C9.665 13.0625 13.955 13.0625 18.375 13.0625 C18.375 17.0225 18.375 20.9825 18.375 25.0625 C14.415 25.3925 10.455 25.7225 6.375 26.0625 C6.3210493 29.47937783 6.28134951 32.89540364 6.25 36.3125 C6.23324219 37.28058594 6.21648437 38.24867188 6.19921875 39.24609375 C6.19277344 40.18066406 6.18632812 41.11523438 6.1796875 42.078125 C6.16921387 42.93696289 6.15874023 43.79580078 6.14794922 44.68066406 C6.26739477 47.44781963 6.26739477 47.44781963 8.375 51.0625 C13.325 50.5675 13.325 50.5675 18.375 50.0625 C18.45582094 52.02016281 18.51410778 53.97876728 18.5625 55.9375 C18.61470703 57.57332031 18.61470703 57.57332031 18.66796875 59.2421875 C18.57128906 60.17289063 18.47460938 61.10359375 18.375 62.0625 C13.49124978 65.31833348 8.08359665 64.63125317 2.375 64.0625 C-2.17942814 61.94233518 -4.51782384 59.60956434 -6.625 55.0625 C-7.54509007 51.35722966 -7.74219926 47.91635602 -7.72265625 44.10546875 C-7.71782227 42.43774414 -7.71782227 42.43774414 -7.71289062 40.73632812 C-7.70451172 39.58583984 -7.69613281 38.43535156 -7.6875 37.25 C-7.68298828 36.08017578 -7.67847656 34.91035156 -7.67382812 33.70507812 C-7.6620693 30.82416642 -7.64563426 27.94335956 -7.625 25.0625 C-9.935 25.0625 -12.245 25.0625 -14.625 25.0625 C-14.625 21.1025 -14.625 17.1425 -14.625 13.0625 C-12.315 13.0625 -10.005 13.0625 -7.625 13.0625 C-7.625 9.1025 -7.625 5.1425 -7.625 1.0625 C-4.98041621 -0.25979189 -2.94738699 -0.03427194 0 0 Z " fill="#425A6C" transform="translate(422.625,171.9375)"/>
<path d="M0 0 C0.86625 0.495 1.7325 0.99 2.625 1.5 C2.625 5.79 2.625 10.08 2.625 14.5 C-1.375 13.5 -1.375 13.5 -3.31640625 12.46484375 C-7.15832305 10.66417307 -11.24382141 10.8315245 -15.375 11.5 C-18.72125024 14.02676039 -20.05477847 15.53933542 -21.375 19.5 C-21.90661515 25.43977698 -21.93245864 30.47048951 -18.375 35.5 C-15.9941001 37.6708205 -14.43070252 38.48866867 -11.19140625 38.5234375 C-7.94459956 38.23554331 -5.22069804 37.92522014 -2.28515625 36.44921875 C-0.375 35.5 -0.375 35.5 2.625 35.5 C2.625 39.46 2.625 43.42 2.625 47.5 C-2.00258165 50.20601975 -5.89848534 51.04721772 -11.1875 51 C-12.24046265 50.99577026 -12.24046265 50.99577026 -13.31469727 50.99145508 C-19.17172918 50.80958487 -24.01061714 49.52430108 -28.375 45.5 C-28.87 44.015 -28.87 44.015 -29.375 42.5 C-30.365 42.17 -31.355 41.84 -32.375 41.5 C-37.04825876 34.32600077 -37.47361103 25.76799508 -36.375 17.5 C-33.93857765 9.98104085 -29.6903999 4.33981505 -22.9375 0.1875 C-16.1469882 -2.98829069 -6.87882097 -2.9280521 0 0 Z " fill="#395062" transform="translate(401.375,185.5)"/>
<path d="M0 0 C0.66 0.33 1.32 0.66 2 1 C2 5.29 2 9.58 2 14 C-2.05273438 13.609375 -2.05273438 13.609375 -6.10546875 13.21875 C-9.27879193 14.07524748 -9.8862291 14.52958669 -11.8125 17.0625 C-15.30579142 23.33775712 -14.78544825 30.5190093 -14.8125 37.5 C-14.83567897 38.90889229 -14.86105131 40.31775029 -14.88867188 41.7265625 C-14.94731508 45.15132565 -14.9837654 48.57481694 -15 52 C-16.97909398 52.02686553 -18.95828971 52.04633375 -20.9375 52.0625 C-22.03964844 52.07410156 -23.14179688 52.08570313 -24.27734375 52.09765625 C-27 52 -27 52 -28 51 C-28.09326716 49.43452952 -28.11745582 47.86487228 -28.11352539 46.29663086 C-28.11344986 45.29566879 -28.11337433 44.29470673 -28.11329651 43.26341248 C-28.10813522 42.1748848 -28.10297394 41.08635712 -28.09765625 39.96484375 C-28.0962413 38.85645645 -28.09482635 37.74806915 -28.09336853 36.60609436 C-28.08775033 33.04986931 -28.07519475 29.49370617 -28.0625 25.9375 C-28.05748734 23.53320403 -28.05292403 21.12890708 -28.04882812 18.72460938 C-28.03777499 12.81638223 -28.02049816 6.90820163 -28 1 C-23.71 1 -19.42 1 -15 1 C-14.67 1.99 -14.34 2.98 -14 4 C-13.175 3.34 -12.35 2.68 -11.5 2 C-7.61759723 -0.61599996 -4.59025039 -0.38252087 0 0 Z " fill="#354D60" transform="translate(475,184)"/>
<path d="M0 0 C3.23613354 1.74253345 3.82395315 2.47185944 5 6 C5.55872803 6.01345459 6.11745605 6.02690918 6.69311523 6.04077148 C24.95846081 6.66099015 24.95846081 6.66099015 30.25 12.1875 C31.51540446 13.77954342 32.7659142 15.38355856 34 17 C35.46759918 18.36891579 36.96661422 19.70520047 38.5 21 C42 24 42 24 43 25 C42.71269945 27.33944736 42.38063221 29.6739143 42 32 C36.91913204 32.84681133 32.15171623 33.09038099 27 33 C26.92136719 33.62003906 26.84273437 34.24007812 26.76171875 34.87890625 C26 37 26 37 24.14453125 38.15234375 C17.84009908 40.27494152 17.84009908 40.27494152 13.5625 38.875 C11 37 11 37 9 34 C8.53202417 29.78821757 8.53434205 27.71400886 10.875 24.125 C13 22 13 22 15 21 C17.05859375 21.015625 17.05859375 21.015625 19.4375 21.25 C20.61119141 21.35054687 20.61119141 21.35054687 21.80859375 21.453125 C24.39012962 22.09735855 25.38993756 22.90847194 27 25 C27 25.66 27 26.32 27 27 C27.99 26.67 28.98 26.34 30 26 C29.52949219 25.48050781 29.05898437 24.96101563 28.57421875 24.42578125 C27.95160156 23.72839844 27.32898438 23.03101563 26.6875 22.3125 C26.07261719 21.62800781 25.45773438 20.94351563 24.82421875 20.23828125 C23 18 23 18 21.7265625 15.26953125 C20.12032591 12.63732635 20.12032591 12.63732635 16.63671875 12.3359375 C8.48480207 11.96785407 8.48480207 11.96785407 1.5625 15.5 C-1.12348051 18.12046879 -1.59929953 18.43233877 -5.125 18.625 C-9 18 -9 18 -11.5 16.0625 C-13.5181123 11.9421874 -13.94937868 8.50324752 -13 4 C-9.30666473 -0.73208581 -5.58437076 -0.62048564 0 0 Z M-6 6 C-6.33 7.32 -6.66 8.64 -7 10 C-5.02 10.99 -5.02 10.99 -3 12 C-1.89163577 10.11683841 -1.89163577 10.11683841 -1 8 C-1.33 7.34 -1.66 6.68 -2 6 C-3.32 6 -4.64 6 -6 6 Z M17 28 C16.67 29.32 16.34 30.64 16 32 C17.32 32.33 18.64 32.66 20 33 C19.67 31.35 19.34 29.7 19 28 C18.34 28 17.68 28 17 28 Z " fill="#404930" transform="translate(102,186)"/>
<path d="M0 0 C1.75708534 -0.00472824 1.75708534 -0.00472824 3.54966736 -0.009552 C4.8204866 -0.00752777 6.09130585 -0.00550354 7.40063477 -0.00341797 C8.7002565 -0.00437469 9.99987823 -0.00533142 11.33888245 -0.00631714 C14.09198187 -0.00779258 16.84504887 -0.00564484 19.59814453 -0.00097656 C23.12673499 0.00471504 26.65524929 0.00144438 30.18383694 -0.00454903 C33.54777564 -0.0090329 36.9116939 -0.00589254 40.27563477 -0.00341797 C41.54442978 -0.0054422 42.81322479 -0.00746643 44.12046814 -0.009552 C45.29501053 -0.00639984 46.46955292 -0.00324768 47.6796875 0 C49.23283913 0.00119339 49.23283913 0.00119339 50.81736755 0.00241089 C53.40454102 0.12939453 53.40454102 0.12939453 56.40454102 1.12939453 C56.45853838 2.58732337 56.49733278 4.04582165 56.52954102 5.50439453 C56.55274414 6.31650391 56.57594727 7.12861328 56.59985352 7.96533203 C56.40454102 10.12939453 56.40454102 10.12939453 54.40454102 12.12939453 C51.84823608 12.36990356 51.84823608 12.36990356 48.57788086 12.35644531 C46.74620865 12.35621872 46.74620865 12.35621872 44.87753296 12.35598755 C43.54017984 12.34577356 42.20282836 12.33534156 40.86547852 12.32470703 C39.50070401 12.32097733 38.13592682 12.31813016 36.77114868 12.31613159 C33.17733378 12.30849167 29.58368028 12.28884025 25.9899292 12.26672363 C22.32346785 12.24627285 18.65698045 12.23713153 14.99047852 12.22705078 C7.7950924 12.20559457 0.59983931 12.17145445 -6.59545898 12.12939453 C-7.79818717 9.72393815 -7.69617371 8.179425 -7.65795898 5.50439453 C-7.64893555 4.68712891 -7.63991211 3.86986328 -7.63061523 3.02783203 C-7.61901367 2.40134766 -7.60741211 1.77486328 -7.59545898 1.12939453 C-4.95023779 -0.19321607 -2.96213541 0.00227776 0 0 Z " fill="#4C5D6A" transform="translate(163.595458984375,265.87060546875)"/>
<path d="M0 0 C5.72980283 2.45562978 9.590961 7.10222608 12.68359375 12.41796875 C13.68359375 17.41796875 13.68359375 17.41796875 13.68359375 30.41796875 C-2.65140625 30.91296875 -2.65140625 30.91296875 -19.31640625 31.41796875 C-18.31640625 27.41796875 -18.31640625 27.41796875 -16.31640625 25.41796875 C-17.30640625 24.42796875 -18.29640625 23.43796875 -19.31640625 22.41796875 C-18.98640625 21.42796875 -18.65640625 20.43796875 -18.31640625 19.41796875 C-18.31640625 20.07796875 -18.31640625 20.73796875 -18.31640625 21.41796875 C-11.71640625 21.41796875 -5.11640625 21.41796875 1.68359375 21.41796875 C-1.15094295 12.47094435 -1.15094295 12.47094435 -6.31640625 10.41796875 C-10.83070781 10.75403585 -10.83070781 10.75403585 -14.31640625 13.41796875 C-16.48046875 13.83203125 -16.48046875 13.83203125 -18.94140625 14.04296875 C-19.75867188 14.11773437 -20.5759375 14.1925 -21.41796875 14.26953125 C-22.04445313 14.31851563 -22.6709375 14.3675 -23.31640625 14.41796875 C-23.31640625 13.75796875 -23.31640625 13.09796875 -23.31640625 12.41796875 C-23.97640625 12.08796875 -24.63640625 11.75796875 -25.31640625 11.41796875 C-20.69140625 5.54296875 -20.69140625 5.54296875 -17.31640625 4.41796875 C-17.64640625 3.42796875 -17.97640625 2.43796875 -18.31640625 1.41796875 C-12.84478352 -1.83894954 -6.05039156 -1.52025016 0 0 Z " fill="#334A5B" transform="translate(348.31640625,184.58203125)"/>
<path d="M0 0 C2.57110347 0.00541337 5.14203621 -0.00000589 7.71313477 -0.00634766 C9.36612994 -0.00568765 11.01912501 -0.00440809 12.67211914 -0.00244141 C13.43157333 -0.00446564 14.19102753 -0.00648987 14.97349548 -0.00857544 C19.12489922 0.00964051 23.0408625 0.32042313 27.11352539 1.13037109 C28.38785819 5.46310261 27.63032689 7.95048298 26.11352539 12.13037109 C18.45972395 12.15566012 10.80593322 12.17321213 3.15209961 12.18530273 C0.54662676 12.19034139 -2.05884324 12.19717239 -4.66430664 12.20581055 C-8.40243225 12.21789654 -12.14052058 12.22360397 -15.87866211 12.22802734 C-17.04952362 12.23318863 -18.22038513 12.23834991 -19.42672729 12.2436676 C-20.50769684 12.24374313 -21.58866638 12.24381866 -22.70239258 12.24389648 C-24.13468704 12.2472274 -24.13468704 12.2472274 -25.59591675 12.25062561 C-27.88647461 12.13037109 -27.88647461 12.13037109 -29.88647461 11.13037109 C-30.33569336 9.09912109 -30.33569336 9.09912109 -30.57397461 6.63037109 C-30.6603418 5.81568359 -30.74670898 5.00099609 -30.83569336 4.16162109 C-30.85245117 3.49130859 -30.86920898 2.82099609 -30.88647461 2.13037109 C-26.08477625 -2.67132727 -6.70788295 -0.01683608 0 0 Z " fill="#364957" transform="translate(188.886474609375,282.86962890625)"/>
<path d="M0 0 C2.23046875 1.1796875 2.23046875 1.1796875 4 3 C4.43359375 5.5234375 4.43359375 5.5234375 4.4375 8.375 C4.67378016 13.02345076 4.67378016 13.02345076 7.3125 16.875 C8.199375 17.57625 9.08625 18.2775 10 19 C11.35827971 20.64639965 12.69254251 22.31295807 14 24 C14.7425 24.886875 15.485 25.77375 16.25 26.6875 C18 29 18 29 18 31 C18.68964844 30.9278125 19.37929687 30.855625 20.08984375 30.78125 C26.08936343 30.18870485 31.97194849 29.71294993 38 30 C38.66 30.66 39.32 31.32 40 32 C39.67028521 35.29714793 39.3773161 36.6226839 37 39 C33.875 38.625 33.875 38.625 31 38 C30.67 37.01 30.34 36.02 30 35 C29.04738281 34.99742187 28.09476563 34.99484375 27.11328125 34.9921875 C16.95162433 34.67887845 16.95162433 34.67887845 14.1328125 32.66796875 C13.01372907 31.16488611 12.00187993 29.58361667 11 28 C9.33927151 27.31867549 7.672233 26.65257873 6 26 C3.80898039 24.17241966 1.77141177 22.24013585 0 20 C0 19.34 0 18.68 0 18 C-1.051875 18.226875 -2.10375 18.45375 -3.1875 18.6875 C-7.44392602 19.03638738 -8.76368055 18.68152183 -12 16 C-14.32402951 12.79062591 -14.47570691 9.88493979 -14 6 C-10.25626385 0.38439577 -6.72544853 -1.06592015 0 0 Z M-6 6 C-6.33 7.65 -6.66 9.3 -7 11 C-6.01 11.33 -5.02 11.66 -4 12 C-3.01 11.34 -2.02 10.68 -1 10 C-1.66 8.68 -2.32 7.36 -3 6 C-3.99 6 -4.98 6 -6 6 Z " fill="#3A4D56" transform="translate(102,146)"/>
<path d="M0 0 C0.99 0.66 1.98 1.32 3 2 C2.13375 2.3403125 2.13375 2.3403125 1.25 2.6875 C-1.5663661 4.33038023 -3.08077114 6.39533227 -5 9 C-3.04366025 11.41121859 -3.04366025 11.41121859 0.625 11.125 C1.73875 11.08375 2.8525 11.0425 4 11 C3.34 13.31 2.68 15.62 2 18 C7.94 18 13.88 18 20 18 C20.33 17.34 20.66 16.68 21 16 C21 16.99 21 17.98 21 19 C20.09906616 18.99214478 20.09906616 18.99214478 19.17993164 18.98413086 C16.47413162 18.96341986 13.76834823 18.95035875 11.0625 18.9375 C10.11697266 18.92912109 9.17144531 18.92074219 8.19726562 18.91210938 C7.29814453 18.90888672 6.39902344 18.90566406 5.47265625 18.90234375 C4.64000244 18.89710693 3.80734863 18.89187012 2.94946289 18.88647461 C0.99483202 18.78356708 0.99483202 18.78356708 0 20 C0.99 20.33 1.98 20.66 3 21 C3.33 21.99 3.66 22.98 4 24 C3.01 24.33 2.02 24.66 1 25 C1 25.99 1 26.98 1 28 C11.56 28 22.12 28 33 28 C33 28.33 33 28.66 33 29 C23.1 29.33 13.2 29.66 3 30 C3.33 31.32 3.66 32.64 4 34 C0.125 33.125 0.125 33.125 -1 32 C-1 32.66 -1 33.32 -1 34 C-1.99 34 -2.98 34 -4 34 C-4.33 34.66 -4.66 35.32 -5 36 C-6.32 35.34 -7.64 34.68 -9 34 C-9.33 34.66 -9.66 35.32 -10 36 C-13.10410577 27.07569592 -12.77656044 19.3592861 -9.28125 10.55859375 C-7.14632469 6.29525204 -4.34709041 2.17354521 0 0 Z " fill="#546A79" transform="translate(329,187)"/>
<path d="M0 0 C12.87 0 25.74 0 39 0 C37.69008973 5.23964106 35.27929944 6.9445802 31 10 C25.70129906 12.94372274 20.95695868 14.04896364 15 13 C11.44276142 11.68679028 8.10606301 10.18780232 5 8 C4.67 7.01 4.34 6.02 4 5 C3.34 5 2.68 5 2 5 C1.34 3.35 0.68 1.7 0 0 Z " fill="#2A3C49" transform="translate(168,301)"/>
<path d="M0 0 C0 0.66 0 1.32 0 2 C0.78375 1.814375 1.5675 1.62875 2.375 1.4375 C5 1 5 1 7 2 C7.25 8.625 7.25 8.625 5 12 C6.98 12.66 8.96 13.32 11 14 C11 14.66 11 15.32 11 16 C11.99 15.34 12.98 14.68 14 14 C13.67 13.34 13.34 12.68 13 12 C15.875 11.375 15.875 11.375 19 11 C19.66 11.66 20.32 12.32 21 13 C21.66 12.67 22.32 12.34 23 12 C23.66 12.66 24.32 13.32 25 14 C21.375 19.75 21.375 19.75 18 22 C5.15559368 23.37219745 5.15559368 23.37219745 0.3125 20.25 C-4.8315859 15.24494345 -4.8315859 15.24494345 -5.3984375 11.0546875 C-5.39070313 10.00539062 -5.38296875 8.95609375 -5.375 7.875 C-5.38273437 6.82054687 -5.39046875 5.76609375 -5.3984375 4.6796875 C-5.26695312 3.79539063 -5.13546875 2.91109375 -5 2 C-2 0 -2 0 0 0 Z " fill="#3A4D5A" transform="translate(483,214)"/>
<path d="M0 0 C4.76049246 2.17622513 7.55886456 5.11267706 10.61328125 9.3125 C10.28328125 9.9725 9.95328125 10.6325 9.61328125 11.3125 C8.95328125 11.3125 8.29328125 11.3125 7.61328125 11.3125 C5.94362674 11.63052943 4.27649607 11.96234951 2.61328125 12.3125 C2.61328125 12.9725 2.61328125 13.6325 2.61328125 14.3125 C1.62328125 14.6425 0.63328125 14.9725 -0.38671875 15.3125 C-0.92296875 14.673125 -1.45921875 14.03375 -2.01171875 13.375 C-4.90200969 10.8650105 -6.5809913 10.39178599 -10.38671875 10.3125 C-10.98484375 10.76625 -11.58296875 11.22 -12.19921875 11.6875 C-15.57160939 14.19270448 -19.28205689 14.0581513 -23.38671875 14.3125 C-23.38671875 13.6525 -23.38671875 12.9925 -23.38671875 12.3125 C-24.04671875 11.9825 -24.70671875 11.6525 -25.38671875 11.3125 C-20.76171875 5.4375 -20.76171875 5.4375 -17.38671875 4.3125 C-17.71671875 3.3225 -18.04671875 2.3325 -18.38671875 1.3125 C-12.93209992 -1.93429693 -5.99501273 -1.72687765 0 0 Z " fill="#3C5466" transform="translate(348.38671875,184.6875)"/>
<path d="M0 0 C0.86625 0.495 1.7325 0.99 2.625 1.5 C2.625 5.79 2.625 10.08 2.625 14.5 C-1.375 13.5 -1.375 13.5 -3.234375 12.4453125 C-6.1155244 11.1729801 -8.49140005 11.30687826 -11.625 11.375 C-13.24148438 11.40207031 -13.24148438 11.40207031 -14.890625 11.4296875 C-16.12039063 11.46449219 -16.12039063 11.46449219 -17.375 11.5 C-17.045 9.52 -16.715 7.54 -16.375 5.5 C-17.365 5.83 -18.355 6.16 -19.375 6.5 C-22.0625 5.5625 -22.0625 5.5625 -24.375 4.5 C-24.375 5.82 -24.375 7.14 -24.375 8.5 C-27.08379335 9.85439668 -29.38433268 9.56501451 -32.375 9.5 C-29.72482467 4.32011186 -26.64880049 1.84148615 -21.36328125 -0.5859375 C-14.55477274 -2.6685401 -6.62984552 -2.7971762 0 0 Z " fill="#324C61" transform="translate(401.375,185.5)"/>
<path d="M0 0 C0 0.33 0 0.66 0 1 C-3.63 0.67 -7.26 0.34 -11 0 C-11 -0.66 -11 -1.32 -11 -2 C-16.84919676 -3.37567619 -22.66559645 -3.18602188 -28.64526367 -3.18530273 C-30.66411895 -3.18747484 -32.68241408 -3.20561801 -34.70117188 -3.22460938 C-42.04833567 -3.23554808 -48.87574553 -2.86148174 -56 -1 C-56.33 -0.01 -56.66 0.98 -57 2 C-59.109375 2.7734375 -59.109375 2.7734375 -61.75 3.375 C-66.48228384 4.66562287 -68.76173013 6.22201849 -72 10 C-73.06824727 10.91377034 -74.15204236 11.80965179 -75.25 12.6875 C-78.01742194 14.7042322 -78.01742194 14.7042322 -79 17 C-80.0828125 17.556875 -80.0828125 17.556875 -81.1875 18.125 C-86.14108287 21.42738858 -89.08269388 26.54298931 -92.25 31.5 C-92.8275 32.325 -93.405 33.15 -94 34 C-94.66 34 -95.32 34 -96 34 C-92.93475903 21.05787146 -80.7705869 10.02899747 -70 3 C-48.63441789 -10.06693327 -22.45946029 -8.89903144 0 0 Z " fill="#F2D248" transform="translate(219,99)"/>
<path d="M0 0 C0.99 0.66 1.98 1.32 3 2 C1.68 2 0.36 2 -1 2 C-1.12375 2.598125 -1.2475 3.19625 -1.375 3.8125 C-2 6 -2 6 -4 9 C-3.67 9.99 -3.34 10.98 -3 12 C-3.56847656 11.96519531 -4.13695312 11.93039063 -4.72265625 11.89453125 C-10.2630763 11.70029282 -13.95201434 12.47600717 -19 15 C-20.65 15.66 -22.3 16.32 -24 17 C-24 12.71 -24 8.42 -24 4 C-16.14121989 -0.41194673 -8.86714639 -0.91435802 0 0 Z " fill="#4D6576" transform="translate(506,184)"/>
<path d="M0 0 C0.08082094 1.95766281 0.13910778 3.91626728 0.1875 5.875 C0.23970703 7.51082031 0.23970703 7.51082031 0.29296875 9.1796875 C0.19628906 10.11039063 0.09960938 11.04109375 0 12 C-4.87748491 15.2516566 -10.29766594 14.58144192 -16 14 C-19.81987253 12.56930973 -21.73277384 10.40083924 -24 7 C-24 5.68 -24 4.36 -24 3 C-23.278125 3.20625 -22.55625 3.4125 -21.8125 3.625 C-18.53009163 4.06265445 -16.96341044 3.36156696 -14 2 C-13.34 2 -12.68 2 -12 2 C-10.32995171 1.68404492 -8.66362417 1.34820041 -7 1 C-2.22222222 0 -2.22222222 0 0 0 Z " fill="#2B4152" transform="translate(441,222)"/>
<path d="M0 0 C2.4375 1 2.4375 1 4 3 C4.52885615 5.6603067 4.73818402 8.29456823 5 11 C5.66 11.33 6.32 11.66 7 12 C-0.17399075 18.41080025 -0.17399075 18.41080025 -5.25 18.6875 C-9 18 -9 18 -11.5 16.0625 C-13.5181123 11.9421874 -13.94937868 8.50324752 -13 4 C-9.30666473 -0.73208581 -5.58437076 -0.62048564 0 0 Z M-6 6 C-6.33 7.32 -6.66 8.64 -7 10 C-5.02 10.99 -5.02 10.99 -3 12 C-1.89163577 10.11683841 -1.89163577 10.11683841 -1 8 C-1.33 7.34 -1.66 6.68 -2 6 C-3.32 6 -4.64 6 -6 6 Z " fill="#394541" transform="translate(102,186)"/>
<path d="M0 0 C3.28356461 0.58994531 5.02314038 1.60830038 7.453125 3.87109375 C8.071875 4.44537109 8.690625 5.01964844 9.328125 5.61132812 C9.96234375 6.21396484 10.5965625 6.81660156 11.25 7.4375 C11.8996875 8.03626953 12.549375 8.63503906 13.21875 9.25195312 C16.75687424 12.57080286 16.75687424 12.57080286 18 14 C18 14.66 18 15.32 18 16 C11.565 16.495 11.565 16.495 5 17 C4.34 15.68 3.68 14.36 3 13 C2.01 13 1.02 13 0 13 C-0.99 13 -1.98 13 -3 13 C-3 13.66 -3 14.32 -3 15 C-1.35 15.33 0.3 15.66 2 16 C2.33 17.32 2.66 18.64 3 20 C-0.22791555 22.1519437 -1.28400809 22.20086443 -5 22 C-5.33 22.99 -5.66 23.98 -6 25 C-3.36 25.33 -0.72 25.66 2 26 C-1 28 -1 28 -4.5 27.375 C-9.41813899 25.44287397 -9.41813899 25.44287397 -11 22 C-11.54046356 17.75350057 -11.48376179 15.74176808 -9.125 12.125 C-7 10 -7 10 -5 9 C-2.94140625 9.015625 -2.94140625 9.015625 -0.5625 9.25 C0.61119141 9.35054687 0.61119141 9.35054687 1.80859375 9.453125 C4.39012962 10.09735855 5.38993756 10.90847194 7 13 C7 13.66 7 14.32 7 15 C7.99 14.67 8.98 14.34 10 14 C9.52949219 13.49210938 9.05898437 12.98421875 8.57421875 12.4609375 C4.98265595 8.49014136 2.0977575 4.93590001 0 0 Z M-3 16 C-3.33 17.32 -3.66 18.64 -4 20 C-2.68 20.33 -1.36 20.66 0 21 C-0.33 19.35 -0.66 17.7 -1 16 C-1.66 16 -2.32 16 -3 16 Z " fill="#5C6A65" transform="translate(122,198)"/>
<path d="M0 0 C0.66 0.33 1.32 0.66 2 1 C2 5.29 2 9.58 2 14 C-2.15039062 13.90234375 -2.15039062 13.90234375 -6.30078125 13.8046875 C-9.22406527 13.79317361 -9.22406527 13.79317361 -12 16 C-12.66 15.67 -13.32 15.34 -14 15 C-14.6328125 12.27734375 -14.6328125 12.27734375 -15.125 8.9375 C-15.29257812 7.83277344 -15.46015625 6.72804687 -15.6328125 5.58984375 C-15.75398438 4.73519531 -15.87515625 3.88054687 -16 3 C-16.99 3.495 -16.99 3.495 -18 4 C-20.3329866 4.04022391 -22.66706666 4.04320247 -25 4 C-25.33 3.01 -25.66 2.02 -26 1 C-22.37 1 -18.74 1 -15 1 C-14.67 1.99 -14.34 2.98 -14 4 C-13.175 3.34 -12.35 2.68 -11.5 2 C-7.61759723 -0.61599996 -4.59025039 -0.38252087 0 0 Z M-26 4 C-25.34 4.66 -24.68 5.32 -24 6 C-24.66 6 -25.32 6 -26 6 C-26 5.34 -26 4.68 -26 4 Z " fill="#395064" transform="translate(475,184)"/>
<path d="M0 0 C0.66 0 1.32 0 2 0 C1.61227488 3.60789834 1.18489944 7.21000826 0.75 10.8125 C0.64042969 11.83666016 0.53085938 12.86082031 0.41796875 13.91601562 C0.29550781 14.89892578 0.17304688 15.88183594 0.046875 16.89453125 C-0.05786133 17.80050049 -0.16259766 18.70646973 -0.27050781 19.63989258 C-1.21636682 22.70000605 -2.27212335 23.36986127 -5 25 C-7.60458374 25.38095093 -7.60458374 25.38095093 -10.59130859 25.38818359 C-12.27358047 25.40236832 -12.27358047 25.40236832 -13.98983765 25.4168396 C-15.1971756 25.41076691 -16.40451355 25.40469421 -17.6484375 25.3984375 C-19.51636459 25.40274277 -19.51636459 25.40274277 -21.42202759 25.40713501 C-24.0567347 25.40917695 -26.69060743 25.40514765 -29.32519531 25.39111328 C-32.02168601 25.3774441 -34.71757207 25.37739775 -37.4140625 25.39111328 C-41.30487118 25.40967267 -45.19510449 25.40739148 -49.0859375 25.3984375 C-50.28922699 25.40451019 -51.49251648 25.41058289 -52.73226929 25.4168396 C-63.24059412 25.3287299 -63.24059412 25.3287299 -68 22 C-71.92222317 16.61245188 -72.97660839 9.4500603 -74 3 C-73.34 3 -72.68 3 -72 3 C-71.73445312 3.99902344 -71.46890625 4.99804688 -71.1953125 6.02734375 C-70.83896002 7.33084361 -70.48216632 8.6342229 -70.125 9.9375 C-69.86396484 10.9265332 -69.86396484 10.9265332 -69.59765625 11.93554688 C-69.12523763 13.641503 -68.56784972 15.32339261 -68 17 C-67.34 17.33 -66.68 17.66 -66 18 C-65.67 18.99 -65.34 19.98 -65 21 C-62.38478215 22.30760893 -60.46886599 22.11997548 -57.54052734 22.11352539 C-56.39949554 22.11344986 -55.25846375 22.11337433 -54.08285522 22.11329651 C-52.84637238 22.10813522 -51.60988953 22.10297394 -50.3359375 22.09765625 C-48.4424205 22.09553383 -48.4424205 22.09553383 -46.51065063 22.09336853 C-43.15361701 22.08871078 -39.796651 22.07972408 -36.43963623 22.06866455 C-33.01445094 22.0584377 -29.58925866 22.05386818 -26.1640625 22.04882812 C-19.44268957 22.03778238 -12.72134869 22.02103194 -6 22 C-4.27773589 18.01175358 -3.85210239 15.52755012 -4.375 11.1875 C-4.48585938 10.21167969 -4.59671875 9.23585937 -4.7109375 8.23046875 C-4.80632812 7.49441406 -4.90171875 6.75835937 -5 6 C-2.525 5.505 -2.525 5.505 0 5 C0 3.35 0 1.7 0 0 Z " fill="#F2C758" transform="translate(223,236)"/>
<path d="M0 0 C3.38396471 1.85312353 5.34227309 4.42103945 7.625 7.4375 C8.388125 8.345 9.15125 9.2525 9.9375 10.1875 C11.625 12.4375 11.625 12.4375 11.625 14.4375 C12.31464844 14.3653125 13.00429687 14.293125 13.71484375 14.21875 C19.71436343 13.62620485 25.59694849 13.15044993 31.625 13.4375 C32.285 14.0975 32.945 14.7575 33.625 15.4375 C33.29528521 18.73464793 33.0023161 20.0601839 30.625 22.4375 C27.5 22.0625 27.5 22.0625 24.625 21.4375 C24.295 20.4475 23.965 19.4575 23.625 18.4375 C22.67238281 18.43492187 21.71976563 18.43234375 20.73828125 18.4296875 C10.58754491 18.11671516 10.58754491 18.11671516 7.6875 16.0703125 C6.4375 14.4375 6.4375 14.4375 4.625 11.4375 C3.635 11.1075 2.645 10.7775 1.625 10.4375 C0.57855934 8.79959288 -0.4148183 7.12741979 -1.375 5.4375 C-2.68537934 3.75272656 -4.01323078 2.08101457 -5.375 0.4375 C-2.375 -0.5625 -2.375 -0.5625 0 0 Z " fill="#494F20" transform="translate(108.375,162.5625)"/>
<path d="M0 0 C-0.515625 0.598125 -1.03125 1.19625 -1.5625 1.8125 C-2.036875 2.534375 -2.51125 3.25625 -3 4 C-2.2236068 7.0745356 -2.2236068 7.0745356 0 9 C-2.31 9.66 -4.62 10.32 -7 11 C-7 13.31 -7 15.62 -7 18 C-2.545 18.99 -2.545 18.99 2 20 C1.67 20.99 1.34 21.98 1 23 C-1.5625 24.1875 -1.5625 24.1875 -4 25 C-4.33 24.34 -4.66 23.68 -5 23 C-8.02934491 22.34227572 -8.02934491 22.34227572 -11 22 C-10.67 21.46375 -10.34 20.9275 -10 20.375 C-8.77300796 17.4608939 -8.85766714 15.13132292 -9 12 C-11.97 11.505 -11.97 11.505 -15 11 C-15 10.34 -15 9.68 -15 9 C-16.65 9.66 -18.3 10.32 -20 11 C-18.44951277 6.34853831 -16.61505599 3.35781753 -12.171875 1.05078125 C-7.76460519 -0.80801002 -4.74416215 -1.30464459 0 0 Z " fill="#445A6C" transform="translate(498,205)"/>
<path d="M0 0 C0.99 0 1.98 0 3 0 C3 3.96 3 7.92 3 12 C-3.17645452 15.6601212 -8.26830915 16.38629103 -15.3125 16.375 C-16.10124512 16.37628906 -16.88999023 16.37757813 -17.70263672 16.37890625 C-21.58879516 16.3058488 -24.66535682 16.23501554 -28 14 C-28 13.67 -28 13.34 -28 13 C-26.33388095 12.957279 -24.66617115 12.95936168 -23 13 C-22.67 13.33 -22.34 13.66 -22 14 C-19.8778002 14.12569503 -17.75088655 14.17576773 -15.625 14.1875 C-13.88089844 14.20876953 -13.88089844 14.20876953 -12.1015625 14.23046875 C-8.83202211 14.24299973 -8.83202211 14.24299973 -6 12 C-5.01 12.33 -4.02 12.66 -3 13 C-3 12.01 -3 11.02 -3 10 C-6.02419525 10.58803797 -9.01758453 11.22678118 -12 12 C-11.67 10.02 -11.34 8.04 -11 6 C-12.98 6 -14.96 6 -17 6 C-17 5.67 -17 5.34 -17 5 C-16.26394531 4.87882813 -15.52789062 4.75765625 -14.76953125 4.6328125 C-13.79371094 4.46523437 -12.81789063 4.29765625 -11.8125 4.125 C-10.84957031 3.96257812 -9.88664062 3.80015625 -8.89453125 3.6328125 C-4.05460728 2.63192472 -4.05460728 2.63192472 0 0 Z " fill="#546672" transform="translate(357,220)"/>
<path d="M0 0 C1.32 0 2.64 0 4 0 C4.66 0.66 5.32 1.32 6 2 C6.99 2 7.98 2 9 2 C9.33 2.99 9.66 3.98 10 5 C14.29 5.33 18.58 5.66 23 6 C23 4.68 23 3.36 23 2 C23.66 2 24.32 2 25 2 C25 3.98 25 5.96 25 8 C20.07262981 9.97094808 16.21979128 10.1799928 11 10 C10.87625 10.639375 10.7525 11.27875 10.625 11.9375 C10.41875 12.618125 10.2125 13.29875 10 14 C7.75487738 15.12256131 6.48543351 15.13413762 4 15.125 C2.948125 15.12886719 2.948125 15.12886719 1.875 15.1328125 C0 15 0 15 -2 14 C-1.67 12.68 -1.34 11.36 -1 10 C2.465 9.505 2.465 9.505 6 9 C6 7.68 6 6.36 6 5 C4.35 4.67 2.7 4.34 1 4 C1 3.34 1 2.68 1 2 C0.34 1.67 -0.32 1.34 -1 1 C-0.67 0.67 -0.34 0.34 0 0 Z " fill="#2A4052" transform="translate(118,209)"/>
<path d="M0 0 C1.50433594 0.01353516 1.50433594 0.01353516 3.0390625 0.02734375 C3.80992187 0.03894531 4.58078125 0.05054688 5.375 0.0625 C5.01664062 0.83980469 4.65828125 1.61710938 4.2890625 2.41796875 C3.98742187 3.29066406 3.68578125 4.16335937 3.375 5.0625 C4.63852052 7.38761472 4.63852052 7.38761472 6.375 9.0625 C3.34765625 9.74609375 3.34765625 9.74609375 0.3203125 10.4296875 C-1.83219964 10.96724428 -1.83219964 10.96724428 -3.625 13.0625 C-5.7890625 13.4765625 -5.7890625 13.4765625 -8.25 13.6875 C-9.06726563 13.76226562 -9.88453125 13.83703125 -10.7265625 13.9140625 C-11.35304688 13.96304688 -11.97953125 14.01203125 -12.625 14.0625 C-12.625 13.4025 -12.625 12.7425 -12.625 12.0625 C-13.285 11.7325 -13.945 11.4025 -14.625 11.0625 C-10 5.1875 -10 5.1875 -6.625 4.0625 C-6.955 3.0725 -7.285 2.0825 -7.625 1.0625 C-4.98041621 -0.25979189 -2.94738699 -0.03427194 0 0 Z " fill="#3E576B" transform="translate(337.625,184.9375)"/>
<path d="M0 0 C0.33 0 0.66 0 1 0 C1.09765625 6.15234375 1.09765625 6.15234375 1 8 C0.67 8.33 0.34 8.66 0 9 C-0.23192865 10.51469448 -0.41215238 12.03754562 -0.5625 13.5625 C-0.64628906 14.38878906 -0.73007813 15.21507812 -0.81640625 16.06640625 C-0.87699219 16.70449219 -0.93757812 17.34257812 -1 18 C0.01368652 17.99214478 0.01368652 17.99214478 1.04785156 17.98413086 C4.11522489 17.96331993 7.18258333 17.95032671 10.25 17.9375 C11.84521484 17.92493164 11.84521484 17.92493164 13.47265625 17.91210938 C14.49746094 17.90888672 15.52226562 17.90566406 16.578125 17.90234375 C17.99206543 17.89448853 17.99206543 17.89448853 19.43457031 17.88647461 C21.78123437 17.99031918 23.75644478 18.33293471 26 19 C25.21362959 22.10712212 24.36075884 25.09244107 23 28 C20.3125 29.5625 20.3125 29.5625 18 30 C18.474375 29.2575 18.94875 28.515 19.4375 27.75 C21.21162303 24.91393298 21.21162303 24.91393298 22 21 C13.42 21 4.84 21 -4 21 C-5.3077036 18.3845928 -4.76582573 17.4359478 -4.00390625 14.6484375 C-3.77509766 13.79765625 -3.54628906 12.946875 -3.31054688 12.0703125 C-2.94026367 10.73613281 -2.94026367 10.73613281 -2.5625 9.375 C-2.31951172 8.4778125 -2.07652344 7.580625 -1.82617188 6.65625 C-1.22378549 4.43568842 -0.61481999 2.21714519 0 0 Z " fill="#F4D15B" transform="translate(198,139)"/>
<path d="M0 0 C2.23828125 1.1953125 2.23828125 1.1953125 4 3 C4.390625 5.48046875 4.390625 5.48046875 4.25 8.1875 C4.21390625 9.08855469 4.1778125 9.98960937 4.140625 10.91796875 C4.07101563 11.94857422 4.07101563 11.94857422 4 13 C2.02 13.99 2.02 13.99 0 15 C-0.99 12.36 -1.98 9.72 -3 7 C-3.99 7 -4.98 7 -6 7 C-6.33 8.32 -6.66 9.64 -7 11 C-6.34 11.33 -5.68 11.66 -5 12 C-5.99 12 -6.98 12 -8 12 C-8 10.02 -8 8.04 -8 6 C-8.66 6 -9.32 6 -10 6 C-10.33 4.68 -10.66 3.36 -11 2 C-7.3946611 -0.40355927 -4.20638975 -0.75085268 0 0 Z " fill="#596D7B" transform="translate(102,146)"/>
<path d="M0 0 C0.99261337 0.00222061 1.98522675 0.00444122 3.00791931 0.00672913 C4.12900589 0.00680466 5.25009247 0.00688019 6.40515137 0.00695801 C8.2348069 0.01469994 8.2348069 0.01469994 10.10142517 0.02259827 C11.96377052 0.02472069 11.96377052 0.02472069 13.86373901 0.02688599 C17.16982383 0.03154861 20.47584039 0.04053955 23.78190613 0.05158997 C27.15338042 0.06180625 30.52486175 0.06638407 33.89634705 0.07142639 C40.51550667 0.08248056 47.13463385 0.09923715 53.75376892 0.12025452 C54.24876892 1.11025452 54.24876892 1.11025452 54.75376892 2.12025452 C54.05663788 2.12612076 53.35950684 2.131987 52.64125061 2.13803101 C46.0782516 2.19588379 39.51558044 2.26791694 32.95291328 2.35596943 C29.57877607 2.40073817 26.2047614 2.43997923 22.83042908 2.46669006 C18.95300527 2.50010387 15.07623459 2.55241381 11.19908142 2.60853577 C9.37716782 2.61812065 9.37716782 2.61812065 7.51844788 2.62789917 C6.39743683 2.64769333 5.27642578 2.66748749 4.1214447 2.68788147 C3.13105194 2.69898453 2.14065918 2.71008759 1.12025452 2.7215271 C0.33931427 2.85310715 -0.44162598 2.98468719 -1.24623108 3.12025452 C-1.90623108 4.11025452 -2.56623108 5.10025452 -3.24623108 6.12025452 C-3.28895208 4.45413547 -3.2868694 2.78642567 -3.24623108 1.12025452 C-2.24623108 0.12025452 -2.24623108 0.12025452 0 0 Z " fill="#24353F" transform="translate(160.24623107910156,266.87974548339844)"/>
<path d="M0 0 C1.75 0.1875 1.75 0.1875 4 1 C4.8353125 2.2375 4.8353125 2.2375 5.6875 3.5 C7.8428577 6.31740218 7.8428577 6.31740218 11.453125 6.70703125 C12.70609375 6.74183594 13.9590625 6.77664062 15.25 6.8125 C16.51328125 6.86019531 17.7765625 6.90789062 19.078125 6.95703125 C20.52445313 6.97830078 20.52445313 6.97830078 22 7 C22.12375 7.639375 22.2475 8.27875 22.375 8.9375 C22.58125 9.618125 22.7875 10.29875 23 11 C23.66 11.33 24.32 11.66 25 12 C24.01 12 23.02 12 22 12 C21.67 11.34 21.34 10.68 21 10 C18.1840151 9.53101037 18.1840151 9.53101037 14.9375 9.375 C13.28041016 9.26285156 13.28041016 9.26285156 11.58984375 9.1484375 C10.73519531 9.09945312 9.88054687 9.05046875 9 9 C9.66 11.97 10.32 14.94 11 18 C12.13888672 18.22042969 12.13888672 18.22042969 13.30078125 18.4453125 C21.47910519 20.29100428 21.47910519 20.29100428 24.25 24.0625 C25 27 25 27 24 29 C23.64550781 28.50628906 23.29101562 28.01257813 22.92578125 27.50390625 C20.06503942 24.06131862 18.12364245 22.22995473 13.640625 21.3125 C10.41494041 21.08712466 7.23283448 20.96597016 4 21 C4 20.67 4 20.34 4 20 C5.98 20 7.96 20 10 20 C9.525625 19.175 9.05125 18.35 8.5625 17.5 C6.76430401 13.47204099 6.3765745 10.36826421 6 6 C5.34 6 4.68 6 4 6 C2.61061923 4.03852126 1.2739589 2.03833424 0 0 Z " fill="#D8C861" transform="translate(110,173)"/>
<path d="M0 0 C0.08082094 1.95766281 0.13910778 3.91626728 0.1875 5.875 C0.23970703 7.51082031 0.23970703 7.51082031 0.29296875 9.1796875 C0.19628906 10.11039063 0.09960938 11.04109375 0 12 C-4.88408365 15.25605577 -10.29116489 14.56807819 -16 14 C-19.75733304 12.71751547 -21.58183245 10.8363351 -23.375 7.25 C-23.58125 6.5075 -23.7875 5.765 -24 5 C-21 5 -21 5 -19.5 6.375 C-19.005 6.91125 -18.51 7.4475 -18 8 C-17.01 8.66 -16.02 9.32 -15 10 C-15 10.66 -15 11.32 -15 12 C-13.5199159 11.88637738 -12.04089926 11.75877092 -10.5625 11.625 C-9.73878906 11.55539063 -8.91507812 11.48578125 -8.06640625 11.4140625 C-7.38449219 11.27742187 -6.70257813 11.14078125 -6 11 C-5.67 10.34 -5.34 9.68 -5 9 C-4.34 8.34 -3.68 7.68 -3 7 C-3.3185177 4.89179203 -3.3185177 4.89179203 -4 3 C-5.98 3 -7.96 3 -10 3 C-10 2.67 -10 2.34 -10 2 C-8.7090864 1.66376204 -7.41723903 1.33110751 -6.125 1 C-5.40570313 0.814375 -4.68640625 0.62875 -3.9453125 0.4375 C-2 0 -2 0 0 0 Z " fill="#445059" transform="translate(441,222)"/>
<path d="M0 0 C1.2065625 0.0309375 1.2065625 0.0309375 2.4375 0.0625 C1.7775 1.7125 1.1175 3.3625 0.4375 5.0625 C1.4275 5.0625 2.4175 5.0625 3.4375 5.0625 C1.976232 7.985036 0.38972009 8.68060975 -2.5625 10.0625 C-5.28561374 10.30959736 -7.81845095 10.20202792 -10.5625 10.0625 C-10.8925 11.0525 -11.2225 12.0425 -11.5625 13.0625 C-12.2225 12.7325 -12.8825 12.4025 -13.5625 12.0625 C-12.9025 9.0925 -12.2425 6.1225 -11.5625 3.0625 C-9.5825 2.7325 -7.6025 2.4025 -5.5625 2.0625 C-5.5625 3.3825 -5.5625 4.7025 -5.5625 6.0625 C-4.9025 6.0625 -4.2425 6.0625 -3.5625 6.0625 C-3.583125 5.258125 -3.60375 4.45375 -3.625 3.625 C-3.54067676 0.16774696 -3.45725304 0.08432324 0 0 Z " fill="#364A58" transform="translate(496.5625,185.9375)"/>
<path d="M0 0 C0.66 0 1.32 0 2 0 C0.44517827 5.18608281 -2.86515492 8.6571025 -6.3125 12.6875 C-11.12846356 18.45547929 -15.2243713 23.95016374 -18 31 C-18.36738281 31.91394531 -18.73476562 32.82789063 -19.11328125 33.76953125 C-19.40589844 34.50558594 -19.69851562 35.24164063 -20 36 C-20.33 36 -20.66 36 -21 36 C-21.46013626 29.44305831 -20.50097655 26.51669032 -17 21 C-16.23959428 18.73014106 -16.23959428 18.73014106 -16 17 C-14.35 16.67 -12.7 16.34 -11 16 C-11 14.68 -11 13.36 -11 12 C-10.34 12 -9.68 12 -9 12 C-8.67 10.68 -8.34 9.36 -8 8 C-7.34 8.33 -6.68 8.66 -6 9 C-5.690625 8.38125 -5.38125 7.7625 -5.0625 7.125 C-4.375 5.75 -3.6875 4.375 -3 3 C-2.01 3 -1.02 3 0 3 C0 2.01 0 1.02 0 0 Z " fill="#F2C04C" transform="translate(246,200)"/>
<path d="M0 0 C0.99 0.33 1.98 0.66 3 1 C3 4.63 3 8.26 3 12 C-1.29 11.67 -5.58 11.34 -10 11 C-10.33 9.68 -10.66 8.36 -11 7 C-10.01 6.67 -9.02 6.34 -8 6 C-6.79117904 3.99983534 -6.79117904 3.99983534 -6 2 C-4.7934375 2.0309375 -4.7934375 2.0309375 -3.5625 2.0625 C-1.06645115 2.29633621 -1.06645115 2.29633621 0 1 C0 0.67 0 0.34 0 0 Z " fill="#3E5262" transform="translate(474,186)"/>
<path d="M0 0 C0.33 0 0.66 0 1 0 C1 5.61 1 11.22 1 17 C1.66 17 2.32 17 3 17 C3 17.99 3 18.98 3 20 C3.66 20 4.32 20 5 20 C5 20.99 5 21.98 5 23 C12.26 23 19.52 23 27 23 C28.231394 26.69418201 27.64432764 29.2056261 27 33 C24.36 33.33 21.72 33.66 19 34 C19.61875 33.71125 20.2375 33.4225 20.875 33.125 C23.13325765 32.06279958 23.13325765 32.06279958 25 30 C24.67958603 27.39719432 24.67958603 27.39719432 24 25 C23.42032471 25.03665771 22.84064941 25.07331543 22.2434082 25.11108398 C19.60031926 25.25717376 16.95807792 25.34778836 14.3125 25.4375 C13.40048828 25.49615234 12.48847656 25.55480469 11.54882812 25.61523438 C4.99286908 25.78211333 4.99286908 25.78211333 2.25292969 23.6237793 C-0.64292421 19.88870406 -1.61367906 16.70480016 -1.375 11.9375 C-1.33117187 10.91011719 -1.28734375 9.88273438 -1.2421875 8.82421875 C-0.98636242 5.8409682 -0.65003847 2.92517312 0 0 Z " fill="#E3CE4A" transform="translate(116,152)"/>
<path d="M0 0 C3.38095634 1.85147609 5.35032865 4.41691369 7.625 7.4375 C8.7696875 8.860625 8.7696875 8.860625 9.9375 10.3125 C10.494375 11.01375 11.05125 11.715 11.625 12.4375 C10.965 13.7575 10.305 15.0775 9.625 16.4375 C8.861875 15.633125 8.09875 14.82875 7.3125 14 C4.83069102 11.26950976 4.83069102 11.26950976 1.625 10.4375 C0.57855934 8.79959288 -0.4148183 7.12741979 -1.375 5.4375 C-2.68537934 3.75272656 -4.01323078 2.08101457 -5.375 0.4375 C-2.375 -0.5625 -2.375 -0.5625 0 0 Z " fill="#475447" transform="translate(108.375,162.5625)"/>
<path d="M0 0 C1 3 1 3 0 6 C0.99 6.33 1.98 6.66 3 7 C3 7.66 3 8.32 3 9 C-1.40914783 10.10228696 -5.48382401 10.07654536 -10 10 C-10.74837142 7.30586287 -11.18449471 5.57025639 -10.3125 2.875 C-9 1 -9 1 -6.8359375 0.390625 C-6.02382813 0.34421875 -5.21171875 0.2978125 -4.375 0.25 C-3.55773437 0.19328125 -2.74046875 0.1365625 -1.8984375 0.078125 C-1.27195312 0.05234375 -0.64546875 0.0265625 0 0 Z " fill="#2E4352" transform="translate(505,203)"/>
<path d="M0 0 C0.33 0 0.66 0 1 0 C0.39169139 6.44807122 0.39169139 6.44807122 -1.375 8.9375 C-3 10 -3 10 -6 10 C-6 11.32 -6 12.64 -6 14 C-7 15 -8 16 -9 17 C-9.7115625 18.670625 -9.7115625 18.670625 -10.4375 20.375 C-11.94685008 23.87669219 -13.35426407 26.27409025 -16 29 C-18.25 29.8125 -18.25 29.8125 -20 30 C-18.44833267 25.39730141 -15.96462859 21.87447866 -13.125 18 C-12.69058594 17.39671875 -12.25617188 16.7934375 -11.80859375 16.171875 C-9.85585866 13.4744031 -7.86741612 10.83444552 -5.78515625 8.234375 C-3.94518593 5.93139246 -2.4833983 3.54296851 -1 1 C-0.67 0.67 -0.34 0.34 0 0 Z " fill="#F4CB4E" transform="translate(207,182)"/>
<path d="M0 0 C1.98 0 3.96 0 6 0 C6 1.65 6 3.3 6 5 C6.763125 4.649375 7.52625 4.29875 8.3125 3.9375 C11 3 11 3 14 4 C14 4.99 14 5.98 14 7 C13.195625 7.144375 12.39125 7.28875 11.5625 7.4375 C9.07896294 7.74135249 9.07896294 7.74135249 8 9 C5.81360547 9.07258946 3.62499611 9.08373783 1.4375 9.0625 C-0.35880859 9.04896484 -0.35880859 9.04896484 -2.19140625 9.03515625 C-3.11824219 9.02355469 -4.04507812 9.01195312 -5 9 C-5 8.01 -5 7.02 -5 6 C-3.68 5.67 -2.36 5.34 -1 5 C-0.67 3.35 -0.34 1.7 0 0 Z " fill="#2A4355" transform="translate(340,226)"/>
<path d="M0 0 C0.33 0 0.66 0 1 0 C1 10.56 1 21.12 1 32 C-2.63 32 -6.26 32 -10 32 C-10 31.67 -10 31.34 -10 31 C-6.7 31 -3.4 31 0 31 C0 30.34 0 29.68 0 29 C-1.65 29 -3.3 29 -5 29 C-4.01 28.34 -3.02 27.68 -2 27 C-1.61611224 24.52868117 -1.61611224 24.52868117 -1.77734375 21.66015625 C-1.79603516 20.59732422 -1.81472656 19.53449219 -1.83398438 18.43945312 C-1.88522461 16.76786133 -1.88522461 16.76786133 -1.9375 15.0625 C-1.99741298 12.86611552 -2.04859527 10.66947052 -2.08984375 8.47265625 C-2.11941162 7.49562744 -2.14897949 6.51859863 -2.17944336 5.51196289 C-2 3 -2 3 0 0 Z " fill="#55646F" transform="translate(459,204)"/>
<path d="M0 0 C3.28356461 0.58994531 5.02314038 1.60830038 7.453125 3.87109375 C8.071875 4.44537109 8.690625 5.01964844 9.328125 5.61132812 C10.27945313 6.5152832 10.27945313 6.5152832 11.25 7.4375 C11.8996875 8.03626953 12.549375 8.63503906 13.21875 9.25195312 C16.75687424 12.57080286 16.75687424 12.57080286 18 14 C18 14.66 18 15.32 18 16 C14.21253816 16.40443315 12.57380943 16.46307427 9.55078125 14.0234375 C8.81214844 13.14945313 8.07351562 12.27546875 7.3125 11.375 C6.56613281 10.51648438 5.81976563 9.65796875 5.05078125 8.7734375 C2.9737829 5.96454449 1.46232533 3.1660504 0 0 Z " fill="#E7CF4B" transform="translate(122,198)"/>
<path d="M0 0 C0.66 0 1.32 0 2 0 C1.55544386 3.62682976 1.09203324 7.25100166 0.625 10.875 C0.49867188 11.90753906 0.37234375 12.94007813 0.2421875 14.00390625 C0.11328125 14.99003906 -0.015625 15.97617188 -0.1484375 16.9921875 C-0.32125244 18.35899658 -0.32125244 18.35899658 -0.49755859 19.75341797 C-1 22 -1 22 -3 24 C-5.3828125 24.1953125 -5.3828125 24.1953125 -8.125 24.125 C-9.49011719 24.09792969 -9.49011719 24.09792969 -10.8828125 24.0703125 C-11.58148438 24.04710937 -12.28015625 24.02390625 -13 24 C-13 23.67 -13 23.34 -13 23 C-9.535 22.505 -9.535 22.505 -6 22 C-4.13334258 18.10281829 -3.86034239 15.45915815 -4.375 11.1875 C-4.48585937 10.21167969 -4.59671875 9.23585937 -4.7109375 8.23046875 C-4.80632812 7.49441406 -4.90171875 6.75835937 -5 6 C-3.35 5.67 -1.7 5.34 0 5 C0 3.35 0 1.7 0 0 Z " fill="#F0B637" transform="translate(223,236)"/>
<path d="M0 0 C0.66 0.33 1.32 0.66 2 1 C1.505 1.598125 1.01 2.19625 0.5 2.8125 C-1.28276418 4.97029994 -1.28276418 4.97029994 -1 8 C-1.70125 8.391875 -2.4025 8.78375 -3.125 9.1875 C-8.17107393 12.36872052 -11.08102044 17.54037028 -14.25 22.5 C-15.11625 23.7375 -15.11625 23.7375 -16 25 C-16.66 25 -17.32 25 -18 25 C-15.56099185 14.70196559 -7.45983701 7.00311229 0 0 Z " fill="#F6D63F" transform="translate(141,108)"/>
<path d="M0 0 C0.66 -0.33 1.32 -0.66 2 -1 C2.66 -0.34 3.32 0.32 4 1 C1.72385081 3.27614919 0.64803179 3.48661411 -2.4375 4.125 C-3.21996094 4.29257813 -4.00242187 4.46015625 -4.80859375 4.6328125 C-9.59947169 5.4355621 -13.38462507 4.21059015 -18 3 C-17.67 1.68 -17.34 0.36 -17 -1 C-14.69 -0.34 -12.38 0.32 -10 1 C-10 1.66 -10 2.32 -10 3 C-9.01 2.34 -8.02 1.68 -7 1 C-7.33 0.34 -7.66 -0.32 -8 -1 C-4.51863753 -2.24334374 -3.18362328 -1.69793242 0 0 Z " fill="#2C4457" transform="translate(504,227)"/>
<path d="M0 0 C0.495 1.98 0.495 1.98 1 4 C-10.88 4 -22.76 4 -35 4 C-34.67 3.34 -34.34 2.68 -34 2 C-32.50835327 1.96241577 -32.50835327 1.96241577 -30.98657227 1.92407227 C-27.30951253 1.83015118 -23.6326485 1.72989381 -19.95581055 1.62768555 C-18.362107 1.58427854 -16.7683552 1.54260781 -15.17456055 1.50268555 C-12.88836092 1.44512193 -10.60240551 1.38138851 -8.31640625 1.31640625 C-7.2413961 1.29133751 -7.2413961 1.29133751 -6.14466858 1.26576233 C-2.78472618 1.44981346 -2.78472618 1.44981346 0 0 Z " fill="#1F2B34" transform="translate(312,231)"/>
<path d="M0 0 C0.99 0 1.98 0 3 0 C3 3.96 3 7.92 3 12 C1.02 12.66 -0.96 13.32 -3 14 C-3 13.01 -3 12.02 -3 11 C-1.35 10.67 0.3 10.34 2 10 C2 9.01 2 8.02 2 7 C0.02 7.99 -1.96 8.98 -4 10 C-4 7 -4 7 -3 5 C-5.97 5 -8.94 5 -12 5 C-12 4.67 -12 4.34 -12 4 C-11.21753906 3.79503906 -10.43507813 3.59007812 -9.62890625 3.37890625 C-8.61699219 3.10949219 -7.60507812 2.84007812 -6.5625 2.5625 C-5.55316406 2.29566406 -4.54382813 2.02882812 -3.50390625 1.75390625 C-1.08247999 1.24021923 -1.08247999 1.24021923 0 0 Z " fill="#3C4D5B" transform="translate(401,221)"/>
<path d="M0 0 C0 2.97 0 5.94 0 9 C-1.62463842 9.05395478 -3.24978541 9.09277195 -4.875 9.125 C-5.77992188 9.14820313 -6.68484375 9.17140625 -7.6171875 9.1953125 C-10 9 -10 9 -12 7 C-11.375 5.0625 -11.375 5.0625 -10 3 C-7.0625 2.375 -7.0625 2.375 -4 2 C-1 0 -1 0 0 0 Z " fill="#2B4253" transform="translate(440,187)"/>
<path d="M0 0 C0.66 0 1.32 0 2 0 C2 3.63 2 7.26 2 11 C-2 10 -2 10 -4.25 9 C-7.84166274 7.69394082 -11.19962955 7.38647835 -15 7 C-14.67 6.34 -14.34 5.68 -14 5 C-13.24074219 5.05800781 -12.48148437 5.11601562 -11.69921875 5.17578125 C-8.72962863 5.31058755 -5.9513879 5.37110647 -3 5 C-0.84397306 2.66250834 -0.84397306 2.66250834 0 0 Z " fill="#354852" transform="translate(401,188)"/>
<path d="M0 0 C5.28 0.33 10.56 0.66 16 1 C16 1.99 16 2.98 16 4 C16.66 4.33 17.32 4.66 18 5 C15.56183415 5.0809723 13.12635616 5.14046972 10.6875 5.1875 C9.65206055 5.22520508 9.65206055 5.22520508 8.59570312 5.26367188 C3.4824036 5.33777767 3.4824036 5.33777767 1.01953125 3.61328125 C0 2 0 2 0 0 Z " fill="#2C434C" transform="translate(106,193)"/>
<path d="M0 0 C-1.051875 0.45375 -2.10375 0.9075 -3.1875 1.375 C-3.826875 1.65214844 -4.46625 1.92929688 -5.125 2.21484375 C-6.62446678 2.84274547 -8.15258326 3.40206393 -9.6875 3.9375 C-12.46009878 5.21139674 -13.87075703 6.80992152 -16 9 C-18.62206295 11.06127492 -21.3039305 13.0368426 -24 15 C-21.44996026 7.56238409 -16.89915716 3.43625974 -10 0 C-6.28924384 -0.99904974 -3.64589562 -1.26204079 0 0 Z " fill="#F5D22A" transform="translate(163,100)"/>
<path d="M0 0 C0.99 0 1.98 0 3 0 C3.91297308 4.97063121 3.91297308 9.02936879 3 14 C1.02 14.66 -0.96 15.32 -3 16 C-3.99 14.68 -4.98 13.36 -6 12 C-4.68 11.67 -3.36 11.34 -2 11 C-1.34 7.37 -0.68 3.74 0 0 Z " fill="#50626F" transform="translate(506,212)"/>
<path d="M0 0 C-0.65045215 5.46747986 -1.41258372 10.89122956 -2.375 16.3125 C-2.4884375 17.01439453 -2.601875 17.71628906 -2.71875 18.43945312 C-3.38263958 22.14381575 -3.86602446 24.71517426 -7 27 C-6.59167517 20.50904325 -5.49475663 14.57825769 -3.62109375 8.34765625 C-2.87212004 5.92136731 -2.87212004 5.92136731 -3 3 C-3.99 3.99 -4.98 4.98 -6 6 C-5.67 4.35 -5.34 2.7 -5 1 C-2 0 -2 0 0 0 Z " fill="#F4D450" transform="translate(206,112)"/>
<path d="M0 0 C0.33 0 0.66 0 1 0 C1 1.98 1 3.96 1 6 C-8.57 6 -18.14 6 -28 6 C-28.33 5.34 -28.66 4.68 -29 4 C-28.19256348 3.98541748 -27.38512695 3.97083496 -26.55322266 3.95581055 C-22.9099873 3.88153914 -19.26768967 3.78480975 -15.625 3.6875 C-13.71847656 3.65366211 -13.71847656 3.65366211 -11.7734375 3.61914062 C-10.56171875 3.58369141 -9.35 3.54824219 -8.1015625 3.51171875 C-6.42054443 3.47244263 -6.42054443 3.47244263 -4.70556641 3.43237305 C-3.81272949 3.28968994 -2.91989258 3.14700684 -2 3 C-1.34 2.01 -0.68 1.02 0 0 Z " fill="#1F2F3A" transform="translate(360,209)"/>
<path d="M0 0 C2.61580479 0.3269756 4.64078137 0.82039068 7 2 C7 6.29 7 10.58 7 15 C6.01 14.67 5.02 14.34 4 14 C4.66 14 5.32 14 6 14 C6 10.37 6 6.74 6 3 C5.01 3.99 4.02 4.98 3 6 C2 7 1 8 0 9 C-1.32 8.34 -2.64 7.68 -4 7 C-2.92598892 4.08482708 -2.22189824 2.22189824 0 0 Z " fill="#5F7281" transform="translate(397,185)"/>
<path d="M0 0 C4.57873355 2.79811495 7.78555226 5.69853386 11.25 9.875 C12.10078125 10.88304688 12.9515625 11.89109375 13.828125 12.9296875 C15.95999817 15.94345065 17.0479007 18.45607483 18 22 C16.35 21.67 14.7 21.34 13 21 C13.33 19.35 13.66 17.7 14 16 C13.34 16 12.68 16 12 16 C12 15.34 12 14.68 12 14 C10.68 13.67 9.36 13.34 8 13 C8 11.68 8 10.36 8 9 C7.01 9 6.02 9 5 9 C5 7.68 5 6.36 5 5 C3.68 4.67 2.36 4.34 1 4 C0.67 2.68 0.34 1.36 0 0 Z " fill="#F3CB4C" transform="translate(231,107)"/>
<path d="M0 0 C1.32 0.33 2.64 0.66 4 1 C4.08978914 5.48945709 3.76778573 9.58523205 3 14 C2.96377667 15.66627298 2.95100158 17.33405374 3 19 C-0.875 14.25 -0.875 14.25 -2 12 C-4.58605332 11.5316735 -4.58605332 11.5316735 -7.5625 11.375 C-8.57441406 11.30023438 -9.58632812 11.22546875 -10.62890625 11.1484375 C-11.80259766 11.07496094 -11.80259766 11.07496094 -13 11 C-13 10.67 -13 10.34 -13 10 C-8.38 9.67 -3.76 9.34 1 9 C1.52174919 2.67082039 1.52174919 2.67082039 0 0 Z " fill="#D4BE50" transform="translate(143,209)"/>
<path d="M0 0 C1.9375 0.5 1.9375 0.5 4 2 C4.41796875 3.87890625 4.41796875 3.87890625 4.625 6.0625 C4.74875 7.361875 4.8725 8.66125 5 10 C5.66 10.33 6.32 10.66 7 11 C5.02 12.65 3.04 14.3 1 16 C0.34 15.67 -0.32 15.34 -1 15 C-0.67 14.34 -0.34 13.68 0 13 C0.66 13 1.32 13 2 13 C2 11.68 2 10.36 2 9 C1.34 8.67 0.68 8.34 0 8 C-0.66 9.65 -1.32 11.3 -2 13 C-2.99 12.34 -3.98 11.68 -5 11 C-4.01 10.34 -3.02 9.68 -2 9 C-2 7.68 -2 6.36 -2 5 C-3.32 4.67 -4.64 4.34 -6 4 C-5.01 3.67 -4.02 3.34 -3 3 C-0.8125 4.4375 -0.8125 4.4375 1 6 C0.67 4.02 0.34 2.04 0 0 Z " fill="#586972" transform="translate(102,187)"/>
<path d="M0 0 C1.89551022 -0.05441656 3.7914792 -0.09298035 5.6875 -0.125 C6.74324219 -0.14820313 7.79898437 -0.17140625 8.88671875 -0.1953125 C12.02251859 0.00141271 14.17645373 0.66942346 17 2 C16.360625 2.165 15.72125 2.33 15.0625 2.5 C12.83880759 3.781786 12.83880759 3.781786 12.51171875 5.9140625 C12.2724022 7.93575155 12.13106972 9.96841939 12 12 C10.68 11.34 9.36 10.68 8 10 C8 9.34 8 8.68 8 8 C7.01 7.34 6.02 6.68 5 6 C5.66 6 6.32 6 7 6 C7.33 4.68 7.66 3.36 8 2 C5.36 1.67 2.72 1.34 0 1 C0 0.67 0 0.34 0 0 Z " fill="#425A6C" transform="translate(334,184)"/>
<path d="M0 0 C1.75 0.1875 1.75 0.1875 4 1 C4.8353125 2.2375 4.8353125 2.2375 5.6875 3.5 C7.8428577 6.31740218 7.8428577 6.31740218 11.453125 6.70703125 C12.70609375 6.74183594 13.9590625 6.77664062 15.25 6.8125 C16.51328125 6.86019531 17.7765625 6.90789062 19.078125 6.95703125 C20.52445313 6.97830078 20.52445313 6.97830078 22 7 C22.12375 7.639375 22.2475 8.27875 22.375 8.9375 C22.58125 9.618125 22.7875 10.29875 23 11 C23.66 11.33 24.32 11.66 25 12 C24.01 12 23.02 12 22 12 C21.67 11.34 21.34 10.68 21 10 C18.1840151 9.53101037 18.1840151 9.53101037 14.9375 9.375 C13.28041016 9.26285156 13.28041016 9.26285156 11.58984375 9.1484375 C10.73519531 9.09945312 9.88054687 9.05046875 9 9 C8.67 9.66 8.34 10.32 8 11 C7.34 9.35 6.68 7.7 6 6 C5.34 6 4.68 6 4 6 C2.61061923 4.03852126 1.2739589 2.03833424 0 0 Z " fill="#D4BE28" transform="translate(110,173)"/>
<path d="M0 0 C2 2 2 2 2 5 C3.32 4.34 4.64 3.68 6 3 C6.99 3.66 7.98 4.32 9 5 C8.67 5.66 8.34 6.32 8 7 C6.68 7.33 5.36 7.66 4 8 C5.98 9.98 7.96 11.96 10 14 C9.67 14.99 9.34 15.98 9 17 C7.82737096 15.88121617 6.66204862 14.75476949 5.5 13.625 C4.52546875 12.68527344 4.52546875 12.68527344 3.53125 11.7265625 C2 10 2 10 2 8 C1.01 7.67 0.02 7.34 -1 7 C-1 6.01 -1 5.02 -1 4 C-1.33 3.01 -1.66 2.02 -2 1 C-1.34 0.67 -0.68 0.34 0 0 Z " fill="#546A70" transform="translate(100,156)"/>
<path d="M0 0 C12.87 0 25.74 0 39 0 C38.67 1.32 38.34 2.64 38 4 C37.01 4 36.02 4 35 4 C35 3.01 35 2.02 35 1 C19.16 1.495 19.16 1.495 3 2 C2.67 2.99 2.34 3.98 2 5 C1.34 3.35 0.68 1.7 0 0 Z " fill="#666F76" transform="translate(168,301)"/>
<path d="M0 0 C1.65 0 3.3 0 5 0 C4.01 0.495 4.01 0.495 3 1 C3 3.31 3 5.62 3 8 C7.455 8.99 7.455 8.99 12 10 C11.67 10.99 11.34 11.98 11 13 C8.4375 14.1875 8.4375 14.1875 6 15 C5.67 14.34 5.34 13.68 5 13 C1.97065509 12.34227572 1.97065509 12.34227572 -1 12 C-0.67 11.46375 -0.34 10.9275 0 10.375 C1.24091523 7.42782633 1.20678166 5.17065216 1 2 C0.67 1.34 0.34 0.68 0 0 Z " fill="#556876" transform="translate(488,215)"/>
<path d="M0 0 C0.66 2.31 1.32 4.62 2 7 C1.01 6.67 0.02 6.34 -1 6 C-1 5.34 -1 4.68 -1 4 C-2.65 4 -4.3 4 -6 4 C-6.15149298 7.62885324 -6.15149298 7.62885324 -5 11 C-6.98 10.34 -8.96 9.68 -11 9 C-11 7.02 -11 5.04 -11 3 C-9.88625 2.814375 -9.88625 2.814375 -8.75 2.625 C-5.66608976 1.92411131 -3.12089925 0 0 0 Z " fill="#455762" transform="translate(102,187)"/>
<path d="M0 0 C0.99 0 1.98 0 3 0 C2.67 1.65 2.34 3.3 2 5 C0.68 4.67 -0.64 4.34 -2 4 C-1.34 2.68 -0.68 1.36 0 0 Z M-5 4 C-4.01 4 -3.02 4 -2 4 C-2 5.32 -2 6.64 -2 8 C-7.28 8 -12.56 8 -18 8 C-18 7.34 -18 6.68 -18 6 C-17.14535156 5.93941406 -16.29070312 5.87882813 -15.41015625 5.81640625 C-13.75306641 5.69072266 -13.75306641 5.69072266 -12.0625 5.5625 C-10.96035156 5.48128906 -9.85820312 5.40007812 -8.72265625 5.31640625 C-6.08890097 5.29581916 -6.08890097 5.29581916 -5 4 Z " fill="#3C4953" transform="translate(400,228)"/>
<path d="M0 0 C-0.99 0.495 -0.99 0.495 -2 1 C-1.67 1.99 -1.34 2.98 -1 4 C-2.65 4 -4.3 4 -6 4 C-6 5.32 -6 6.64 -6 8 C-8.70879335 9.35439668 -11.00933268 9.06501451 -14 9 C-11.03818837 3.78721153 -6.66477158 -2.22159053 0 0 Z " fill="#526675" transform="translate(383,186)"/>
<path d="M0 0 C7.92 0 15.84 0 24 0 C24.33 1.32 24.66 2.64 25 4 C24.01 5.485 24.01 5.485 23 7 C23 5.35 23 3.7 23 2 C15.41 2 7.82 2 0 2 C0 1.34 0 0.68 0 0 Z " fill="#F2E097" transform="translate(158,180)"/>
<path d="M0 0 C0.33 0 0.66 0 1 0 C1.33 6.93 1.66 13.86 2 21 C6.455 21.99 6.455 21.99 11 23 C11 23.66 11 24.32 11 25 C7.37 25.33 3.74 25.66 0 26 C-1.04616643 22.8615007 -1.04169366 20.94961697 -0.87890625 17.67578125 C-0.83056641 16.64775391 -0.78222656 15.61972656 -0.73242188 14.56054688 C-0.67634766 13.48869141 -0.62027344 12.41683594 -0.5625 11.3125 C-0.51029297 10.22904297 -0.45808594 9.14558594 -0.40429688 8.02929688 C-0.27458784 5.35257409 -0.13962067 2.67622112 0 0 Z " fill="#283946" transform="translate(448,210)"/>
<path d="M0 0 C0.66 0 1.32 0 2 0 C2.33 0.66 2.66 1.32 3 2 C10.92 2 18.84 2 27 2 C27 2.66 27 3.32 27 4 C25.83428467 4.03758423 25.83428467 4.03758423 24.64501953 4.07592773 C21.13816931 4.19166796 17.63160255 4.31449352 14.125 4.4375 C12.90167969 4.47681641 11.67835938 4.51613281 10.41796875 4.55664062 C9.25136719 4.59853516 8.08476562 4.64042969 6.8828125 4.68359375 C5.26463623 4.73858032 5.26463623 4.73858032 3.61376953 4.79467773 C1.01930464 4.83376643 1.01930464 4.83376643 -1 6 C-0.67 4.02 -0.34 2.04 0 0 Z " fill="#2E404F" transform="translate(277,229)"/>
<path d="M0 0 C0 0.99 0 1.98 0 3 C-1.98 3.33 -3.96 3.66 -6 4 C-6.33 6.97 -6.66 9.94 -7 13 C-6.34 12.34 -5.68 11.68 -5 11 C-2.375 10.875 -2.375 10.875 0 11 C-3.1540179 13.71595986 -4.87384964 14.96846241 -9 16 C-9 11.71 -9 7.42 -9 3 C-3.375 0 -3.375 0 0 0 Z " fill="#5E6A73" transform="translate(491,185)"/>
<path d="M0 0 C3.7499837 -0.02905924 7.49993837 -0.04681874 11.25 -0.0625 C12.84521484 -0.07506836 12.84521484 -0.07506836 14.47265625 -0.08789062 C15.49746094 -0.09111328 16.52226562 -0.09433594 17.578125 -0.09765625 C18.99206543 -0.10551147 18.99206543 -0.10551147 20.43457031 -0.11352539 C22.78123437 -0.00968082 24.75644478 0.33293471 27 1 C26.21362959 4.10712212 25.36075884 7.09244107 24 10 C21.3125 11.5625 21.3125 11.5625 19 12 C19.495 11.278125 19.99 10.55625 20.5 9.8125 C22.39215686 6.79595588 22.39215686 6.79595588 22 2 C14.74 1.67 7.48 1.34 0 1 C0 0.67 0 0.34 0 0 Z " fill="#F4BD17" transform="translate(197,157)"/>
<path d="M0 0 C1.3921875 0.2784375 1.3921875 0.2784375 2.8125 0.5625 C6.01343771 1.24123881 6.01343771 1.24123881 9 0 C8.42415568 2.38564077 7.77772405 4.66682784 7 7 C4.69 7.33 2.38 7.66 0 8 C0 5.36 0 2.72 0 0 Z " fill="#2D495C" transform="translate(377,190)"/>
<path d="M0 0 C1.3191838 0.39499553 2.6324615 0.81052091 3.9375 1.25 C4.9275 1.58 5.9175 1.91 6.9375 2.25 C6.6075 3.24 6.2775 4.23 5.9375 5.25 C-0.47808442 6.60714286 -0.47808442 6.60714286 -3.3125 4.875 C-3.89 4.33875 -4.4675 3.8025 -5.0625 3.25 C-6.0525 2.92 -7.0425 2.59 -8.0625 2.25 C-5.34100127 -0.6982903 -3.728428 -0.94755629 0 0 Z " fill="#314C5F" transform="translate(429.0625,224.75)"/>
<path d="M0 0 C0.66 0.33 1.32 0.66 2 1 C0.87469934 3.25060133 0.0179154 4.48656345 -2 6 C-4.5625 5.625 -4.5625 5.625 -7 5 C-7.99 5.495 -7.99 5.495 -9 6 C-9.99 4.68 -10.98 3.36 -12 2 C-8.08488397 -0.61007735 -4.5480334 -0.22006613 0 0 Z " fill="#5E7080" transform="translate(475,184)"/>
<path d="M0 0 C9.57 0 19.14 0 29 0 C29.33 0.66 29.66 1.32 30 2 C19.88962219 2.73019395 10.10086131 3.28736468 0 2 C0 1.34 0 0.68 0 0 Z " fill="#5B646A" transform="translate(172,283)"/>
<path d="M0 0 C3.37503669 1.1858237 5.64722731 2.27573689 8 5 C7.67 5.66 7.34 6.32 7 7 C6.01 7 5.02 7 4 7 C3.34 7.66 2.68 8.32 2 9 C1.01 8.34 0.02 7.68 -1 7 C-0.67 4.69 -0.34 2.38 0 0 Z " fill="#4E6173" transform="translate(509,186)"/>
<path d="M0 0 C1.75 0.125 1.75 0.125 4 1 C6.3125 3.8125 6.3125 3.8125 8 7 C7.75 9.375 7.75 9.375 7 11 C6.34 11 5.68 11 5 11 C3.7109375 9.609375 3.7109375 9.609375 2.375 7.75 C1.92898438 7.14671875 1.48296875 6.5434375 1.0234375 5.921875 C0 4 0 4 0 0 Z " fill="#40515D" transform="translate(320,221)"/>
<path d="M0 0 C0.66 0.33 1.32 0.66 2 1 C2 3.64 2 6.28 2 9 C0.02 9.99 0.02 9.99 -2 11 C-2.96891192 5.62694301 -2.96891192 5.62694301 -3 3 C-1.5625 1 -1.5625 1 0 0 Z " fill="#365063" transform="translate(104,150)"/>
<path d="M0 0 C0.66 0.33 1.32 0.66 2 1 C2.125 3.375 2.125 3.375 2 6 C1.34 6.66 0.68 7.32 0 8 C0 8.66 0 9.32 0 10 C-5.75 10.125 -5.75 10.125 -8 9 C-7.67 7.68 -7.34 6.36 -7 5 C-3.535 4.505 -3.535 4.505 0 4 C0 2.68 0 1.36 0 0 Z " fill="#283A3F" transform="translate(124,214)"/>
<path d="M0 0 C3.63 0 7.26 0 11 0 C11.33 0.99 11.66 1.98 12 3 C12.66 2.67 13.32 2.34 14 2 C13.34 3.32 12.68 4.64 12 6 C11.34 5.67 10.68 5.34 10 5 C10 4.01 10 3.02 10 2 C9.01 2.495 9.01 2.495 8 3 C5.6670134 3.04022391 3.33293334 3.04320247 1 3 C0.67 2.01 0.34 1.02 0 0 Z M0 3 C0.66 3.66 1.32 4.32 2 5 C1.34 5 0.68 5 0 5 C0 4.34 0 3.68 0 3 Z " fill="#657483" transform="translate(449,185)"/>
<path d="M0 0 C0.66 0.66 1.32 1.32 2 2 C-2.64849515 4.3992233 -6.91086074 4.19957409 -12 4 C-12 3.01 -12 2.02 -12 1 C-10.37681021 0.63762737 -8.7513642 0.28534843 -7.125 -0.0625 C-6.22007812 -0.25972656 -5.31515625 -0.45695312 -4.3828125 -0.66015625 C-2 -1 -2 -1 0 0 Z " fill="#5A646C" transform="translate(195,310)"/>
<path d="M0 0 C2.125 0.375 2.125 0.375 4 1 C4 1.66 4 2.32 4 3 C-0.02189945 4.34063315 -3.72662522 4.18417125 -7.9375 4.1875 C-8.74896484 4.19974609 -9.56042969 4.21199219 -10.39648438 4.22460938 C-11.18216797 4.22654297 -11.96785156 4.22847656 -12.77734375 4.23046875 C-13.49140381 4.23457764 -14.20546387 4.23868652 -14.94116211 4.24291992 C-17.31136132 3.96326283 -18.93707267 3.17114859 -21 2 C-21 1.67 -21 1.34 -21 1 C-19.33388095 0.957279 -17.66617115 0.95936168 -16 1 C-15.67 1.33 -15.34 1.66 -15 2 C-12.85692104 2.12537741 -10.70921114 2.17574364 -8.5625 2.1875 C-7.38816406 2.20167969 -6.21382813 2.21585938 -5.00390625 2.23046875 C-1.88503098 2.31899256 -1.88503098 2.31899256 0 0 Z " fill="#5B676E" transform="translate(350,232)"/>
<path d="M0 0 C1.65 0.33 3.3 0.66 5 1 C3.83242263 4.32310483 2.85051143 6.83361132 0 9 C-0.99 9 -1.98 9 -3 9 C-3.33 8.01 -3.66 7.02 -4 6 C-3.525625 5.566875 -3.05125 5.13375 -2.5625 4.6875 C-0.76313043 2.97690387 -0.76313043 2.97690387 0 0 Z " fill="#344C61" transform="translate(505,186)"/>
<path d="M0 0 C0.33 0 0.66 0 1 0 C1.33 6.93 1.66 13.86 2 21 C2.66 21.33 3.32 21.66 4 22 C4 22.99 4 23.98 4 25 C2.68 25.33 1.36 25.66 0 26 C0 17.42 0 8.84 0 0 Z " fill="#304555" transform="translate(416,197)"/>
<path d="M0 0 C1.1725131 0.95117134 2.33787015 1.91117009 3.5 2.875 C4.47453125 3.67550781 4.47453125 3.67550781 5.46875 4.4921875 C6.22671875 5.23855469 6.22671875 5.23855469 7 6 C7 6.66 7 7.32 7 8 C4.1875 8.3125 4.1875 8.3125 1 8 C-0.875 5.5 -0.875 5.5 -2 3 C-1.34 2.67 -0.68 2.34 0 2 C0 1.34 0 0.68 0 0 Z " fill="#E3C426" transform="translate(133,206)"/>
<path d="M0 0 C0.66 0 1.32 0 2 0 C3.25664978 2.90600261 4 4.79604584 4 8 C4.66 8.33 5.32 8.66 6 9 C4.02 9.33 2.04 9.66 0 10 C-0.19412181 8.52168779 -0.38012131 7.04230684 -0.5625 5.5625 C-0.66691406 4.73878906 -0.77132812 3.91507812 -0.87890625 3.06640625 C-0.91886719 2.38449219 -0.95882812 1.70257813 -1 1 C-0.67 0.67 -0.34 0.34 0 0 Z " fill="#454F56" transform="translate(159,284)"/>
<path d="M0 0 C3.96 0 7.92 0 12 0 C12 0.66 12 1.32 12 2 C7.545 2.495 7.545 2.495 3 3 C2.67 4.65 2.34 6.3 2 8 C1.34 8 0.68 8 0 8 C-1 5 -1 5 0 0 Z " fill="#435869" transform="translate(491,184)"/>
<path d="M0 0 C1.45792884 -0.05399736 2.91642712 -0.09279177 4.375 -0.125 C5.18710938 -0.14820313 5.99921875 -0.17140625 6.8359375 -0.1953125 C9 0 9 0 11 2 C10.625 4.125 10.625 4.125 10 6 C8.35 6 6.7 6 5 6 C4.67 5.34 4.34 4.68 4 4 C4.33 3.01 4.66 2.02 5 1 C3.35 1 1.7 1 0 1 C0 0.67 0 0.34 0 0 Z " fill="#6B7243" transform="translate(131,176)"/>
<path d="M0 0 C0 3.3 0 6.6 0 10 C-0.66 10 -1.32 10 -2 10 C-2.66 7.69 -3.32 5.38 -4 3 C-5.98 3 -7.96 3 -10 3 C-10 2.67 -10 2.34 -10 2 C-8.7090864 1.66376204 -7.41723903 1.33110751 -6.125 1 C-5.40570313 0.814375 -4.68640625 0.62875 -3.9453125 0.4375 C-2 0 -2 0 0 0 Z " fill="#444F54" transform="translate(441,222)"/>
<path d="M0 0 C4.62 0 9.24 0 14 0 C14 0.66 14 1.32 14 2 C11.36 2 8.72 2 6 2 C5.67 2.66 5.34 3.32 5 4 C3.02 3.34 1.04 2.68 -1 2 C-0.67 1.34 -0.34 0.68 0 0 Z " fill="#4B5D6E" transform="translate(383,184)"/>
<path d="M0 0 C1.98 0 3.96 0 6 0 C5.67 4.29 5.34 8.58 5 13 C4.01 12.67 3.02 12.34 2 12 C2.02320313 11.30132812 2.04640625 10.60265625 2.0703125 9.8828125 C2.08835937 8.97273437 2.10640625 8.06265625 2.125 7.125 C2.15980469 5.76761719 2.15980469 5.76761719 2.1953125 4.3828125 C2.24324836 1.81193006 2.24324836 1.81193006 0 0 Z " fill="#2C404F" transform="translate(423,173)"/>
<path d="M0 0 C1.60875 0.2784375 1.60875 0.2784375 3.25 0.5625 C6.40391546 0.9304568 8.09818492 1.04465343 11 0 C11.33 0.66 11.66 1.32 12 2 C8.65060119 4.02558881 6.13037449 4.21738987 2.25 4.125 C1.26515625 4.10695312 0.2803125 4.08890625 -0.734375 4.0703125 C-1.85585938 4.03550781 -1.85585938 4.03550781 -3 4 C-2 2 -2 2 0 1 C0 0.67 0 0.34 0 0 Z " fill="#283F50" transform="translate(386,230)"/>
<path d="M0 0 C0.99 0.495 0.99 0.495 2 1 C2.73075648 3.3140622 3.40138258 5.64828869 4 8 C5.32 8 6.64 8 8 8 C8 8.66 8 9.32 8 10 C5.36 10 2.72 10 0 10 C0 6.7 0 3.4 0 0 Z " fill="#2D3F4C" transform="translate(408,186)"/>
<path d="M0 0 C1.79093191 -0.08086147 3.58289628 -0.13912702 5.375 -0.1875 C6.87160156 -0.23970703 6.87160156 -0.23970703 8.3984375 -0.29296875 C9.25695312 -0.19628906 10.11546875 -0.09960938 11 0 C11.66 0.99 12.32 1.98 13 3 C8.38 3 3.76 3 -1 3 C-0.67 2.01 -0.34 1.02 0 0 Z " fill="#34422A" transform="translate(119,177)"/>
<path d="M0 0 C0.66 0.33 1.32 0.66 2 1 C2.2734375 2.9609375 2.2734375 2.9609375 2.375 5.375 C2.63636154 9.17085597 2.63636154 9.17085597 5.0625 12.0625 C5.701875 12.371875 6.34125 12.68125 7 13 C6.67 13.66 6.34 14.32 6 15 C2.45706334 13.13529649 0.22771183 11.90635582 -1 8 C-1.32142857 2.64285714 -1.32142857 2.64285714 0 0 Z " fill="#757E6C" transform="translate(89,150)"/>
<path d="M0 0 C0.66 0 1.32 0 2 0 C0.55797524 4.15151338 -1.5010438 7.29978445 -4.125 10.8125 C-5.21167969 12.27623047 -5.21167969 12.27623047 -6.3203125 13.76953125 C-6.87460938 14.50558594 -7.42890625 15.24164063 -8 16 C-8.33 15.01 -8.66 14.02 -9 13 C-8.525625 12.608125 -8.05125 12.21625 -7.5625 11.8125 C-5.64820367 9.59191626 -5.38733012 7.86624291 -5 5 C-4.01 5 -3.02 5 -2 5 C-2 4.01 -2 3.02 -2 2 C-1.34 2 -0.68 2 0 2 C0 1.34 0 0.68 0 0 Z " fill="#F5D957" transform="translate(177,148)"/>
<path d="M0 0 C-2.06756277 2.7972908 -3.14440371 3.02692273 -6.6875 3.6875 C-7.780625 3.790625 -8.87375 3.89375 -10 4 C-10.66 5.65 -11.32 7.3 -12 9 C-12.33 9 -12.66 9 -13 9 C-13.3125 6.75 -13.3125 6.75 -13 4 C-9.02204879 -0.59950609 -5.68246774 -0.38525205 0 0 Z " fill="#62736F" transform="translate(102,186)"/>
<path d="M0 0 C0.66 0 1.32 0 2 0 C2.04254356 1.99954746 2.04080783 4.00041636 2 6 C1 7 1 7 -1.50390625 7.09765625 C-3.01791016 7.08025391 -3.01791016 7.08025391 -4.5625 7.0625 C-5.57441406 7.05347656 -6.58632812 7.04445312 -7.62890625 7.03515625 C-8.41136719 7.02355469 -9.19382813 7.01195312 -10 7 C-6.50007882 4.10115224 -4.56830973 3.68852434 0 4 C0 2.68 0 1.36 0 0 Z " fill="#24393F" transform="translate(141,211)"/>
<path d="M0 0 C0.99 0.33 1.98 0.66 3 1 C2.67 2.32 2.34 3.64 2 5 C1.34 5 0.68 5 0 5 C-0.33 5.99 -0.66 6.98 -1 8 C-3.97 7.505 -3.97 7.505 -7 7 C-4.66666667 4.66666667 -2.33333333 2.33333333 0 0 Z " fill="#2F424A" transform="translate(102,195)"/>
<path d="M0 0 C0.33 0 0.66 0 1 0 C0.57664615 6.49142565 -1.91099799 11.33492989 -5 17 C-6.33332095 14.3333581 -5.67102033 12.83319697 -5 10 C-4.34 10 -3.68 10 -3 10 C-3 8.35 -3 6.7 -3 5 C-2.34 5 -1.68 5 -1 5 C-0.67 3.35 -0.34 1.7 0 0 Z " fill="#F0C155" transform="translate(254,183)"/>
<path d="M0 0 C1.32 0.33 2.64 0.66 4 1 C4 1.99 4 2.98 4 4 C3.195625 4.144375 2.39125 4.28875 1.5625 4.4375 C-0.92103706 4.74135249 -0.92103706 4.74135249 -2 6 C-4.18639453 6.07258946 -6.37500389 6.08373783 -8.5625 6.0625 C-10.35880859 6.04896484 -10.35880859 6.04896484 -12.19140625 6.03515625 C-13.11824219 6.02355469 -14.04507812 6.01195312 -15 6 C-15 5.67 -15 5.34 -15 5 C-14.16855469 4.97421875 -13.33710938 4.9484375 -12.48046875 4.921875 C-10.85044922 4.83679688 -10.85044922 4.83679688 -9.1875 4.75 C-7.56908203 4.68039063 -7.56908203 4.68039063 -5.91796875 4.609375 C-2.88255768 4.27045978 -2.88255768 4.27045978 -1.11328125 1.953125 C-0.74589844 1.30859375 -0.37851562 0.6640625 0 0 Z " fill="#253845" transform="translate(350,229)"/>
<path d="M0 0 C1.0326802 2.78823655 1.04509293 3.8677274 0.0625 6.75 C-0.288125 7.4925 -0.63875 8.235 -1 9 C-3.64 9 -6.28 9 -9 9 C-9 8.34 -9 7.68 -9 7 C-3.25 5 -3.25 5 -1 5 C-0.67 3.35 -0.34 1.7 0 0 Z " fill="#283B49" transform="translate(476,187)"/>
<path d="M0 0 C1.43861294 0.08746284 2.87597508 0.19565348 4.3125 0.3125 C5.11300781 0.37050781 5.91351563 0.42851562 6.73828125 0.48828125 C9.39066259 1.08838825 10.36503879 1.85708967 12 4 C12 4.66 12 5.32 12 6 C13.65 6 15.3 6 17 6 C17 6.33 17 6.66 17 7 C14.69 7.33 12.38 7.66 10 8 C9.34 6.68 8.68 5.36 8 4 C7.01 4.495 7.01 4.495 6 5 C5.67 4.01 5.34 3.02 5 2 C3.35 1.67 1.7 1.34 0 1 C0 0.67 0 0.34 0 0 Z " fill="#87979A" transform="translate(117,207)"/>
<path d="M0 0 C3.96 0 7.92 0 12 0 C12 0.66 12 1.32 12 2 C12.66 2 13.32 2 14 2 C13.67 2.66 13.34 3.32 13 4 C8.38 3.34 3.76 2.68 -1 2 C-0.67 1.34 -0.34 0.68 0 0 Z " fill="#263A47" transform="translate(387,193)"/>
<path d="M0 0 C5.78461538 4.43076923 5.78461538 4.43076923 6.875 7.3125 C6.936875 8.1478125 6.936875 8.1478125 7 9 C4.625 8.75 4.625 8.75 2 8 C-0.09862498 5.10189884 0 3.71621139 0 0 Z " fill="#5D757B" transform="translate(109,163)"/>
<path d="M0 0 C1.32 0.33 2.64 0.66 4 1 C1.69 4.3 -0.62 7.6 -3 11 C-4.09658936 7.71023192 -3.79953138 6.28696233 -3 3 C-2.01 2.67 -1.02 2.34 0 2 C0 1.34 0 0.68 0 0 Z " fill="#F8D34A" transform="translate(183,137)"/>
<path d="M0 0 C0.66 0 1.32 0 2 0 C3.26264601 4.29299643 2.62950412 6.87831311 1 11 C-0.32 10.67 -1.64 10.34 -3 10 C-2.34 9.34 -1.68 8.68 -1 8 C-0.54188325 6.02764667 -0.54188325 6.02764667 -0.375 3.875 C-0.25125 2.59625 -0.1275 1.3175 0 0 Z " fill="#48525B" transform="translate(214,284)"/>
<path d="M0 0 C-0.33 1.32 -0.66 2.64 -1 4 C-2.98 4.33 -4.96 4.66 -7 5 C-6.625 2.5625 -6.625 2.5625 -6 0 C-3.50907189 -1.24546405 -2.58919267 -0.7767578 0 0 Z " fill="#304E65" transform="translate(491,189)"/>
<path d="M0 0 C0.33 0.66 0.66 1.32 1 2 C-0.06140299 4.79543927 -1.56660609 7.37879366 -3 10 C-3.53625 10.99 -4.0725 11.98 -4.625 13 C-5.07875 13.66 -5.5325 14.32 -6 15 C-6.66 15 -7.32 15 -8 15 C-6.51194289 9.19657726 -3.40902445 4.82409121 0 0 Z " fill="#F4DB61" transform="translate(131,118)"/>
<path d="M0 0 C1.34201604 2.68403208 0.70405525 3.7430131 -0.1875 6.5625 C-0.42855469 7.36816406 -0.66960937 8.17382812 -0.91796875 9.00390625 C-2 11 -2 11 -4.11328125 11.77734375 C-5.04720703 11.88755859 -5.04720703 11.88755859 -6 12 C-4.68139111 7.38486888 -2.78644563 3.90102388 0 0 Z " fill="#F5CE4D" transform="translate(177,227)"/>
<path d="M0 0 C0.763125 0.0825 1.52625 0.165 2.3125 0.25 C0.9925 2.89 -0.3275 5.53 -1.6875 8.25 C-3.0075 6.93 -4.3275 5.61 -5.6875 4.25 C-3.34903846 0.31153846 -3.34903846 0.31153846 0 0 Z " fill="#52616D" transform="translate(381.6875,196.75)"/>
<path d="M0 0 C0.33 0 0.66 0 1 0 C0.38461538 6.52307692 0.38461538 6.52307692 -1.5625 8.9375 C-2.036875 9.288125 -2.51125 9.63875 -3 10 C-3.66 9.67 -4.32 9.34 -5 9 C-2.25 2.25 -2.25 2.25 0 0 Z " fill="#F4C335" transform="translate(207,182)"/>
<path d="M0 0 C1.45606519 4.52092968 0.27032841 7.51648796 -1 12 C-1.66 12 -2.32 12 -3 12 C-3.33 13.65 -3.66 15.3 -4 17 C-5.6852084 12.92320841 -4.16939007 10.16924407 -2.5625 6.25 C-2.08941406 5.07953125 -1.61632812 3.9090625 -1.12890625 2.703125 C-0.75636719 1.81109375 -0.38382812 0.9190625 0 0 Z " fill="#F5DB5F" transform="translate(122,133)"/>
<path d="M0 0 C3 0 3 0 4.5 1.3125 C4.995 1.869375 5.49 2.42625 6 3 C6.556875 3.556875 7.11375 4.11375 7.6875 4.6875 C8.3371875 5.3371875 8.3371875 5.3371875 9 6 C8.67 6.66 8.34 7.32 8 8 C4.11137013 6.73882275 2.10624401 5.54735833 0 2 C0 1.34 0 0.68 0 0 Z " fill="#545F6B" transform="translate(417,227)"/>
<path d="M0 0 C2.05164237 3.46214649 2 4.59389235 2 9 C-1.63 9 -5.26 9 -9 9 C-9 8.67 -9 8.34 -9 8 C-5.7 8 -2.4 8 1 8 C-0.32 6.35 -1.64 4.7 -3 3 C-2.01 2.67 -1.02 2.34 0 2 C0 1.34 0 0.68 0 0 Z " fill="#7B8991" transform="translate(517,227)"/>
<path d="M0 0 C2.31 0.33 4.62 0.66 7 1 C7.66 2.65 8.32 4.3 9 6 C5.59687262 4.94124926 2.98646769 3.99097846 0 2 C0 1.34 0 0.68 0 0 Z " fill="#4C5963" transform="translate(373,229)"/>
<path d="M0 0 C0.66 1.32 1.32 2.64 2 4 C0.02 4.66 -1.96 5.32 -4 6 C-4.99 4.68 -5.98 3.36 -7 2 C-4.69 1.34 -2.38 0.68 0 0 Z " fill="#425A69" transform="translate(507,222)"/>
<path d="M0 0 C1.5 1.375 1.5 1.375 3 3 C3 3.66 3 4.32 3 5 C7.455 5.99 7.455 5.99 12 7 C12 7.33 12 7.66 12 8 C6.77984085 8.43501326 6.77984085 8.43501326 4 8 C1.5 5.6875 1.5 5.6875 0 3 C0 2.01 0 1.02 0 0 Z " fill="#8F9B78" transform="translate(89,196)"/>
<path d="M0 0 C5.40049736 0.31767632 7.52337065 3.19996327 11 7 C10.67 7.99 10.34 8.98 10 10 C8.82737096 8.88121617 7.66204862 7.75476949 6.5 6.625 C5.8503125 5.99851563 5.200625 5.37203125 4.53125 4.7265625 C3 3 3 3 3 1 C2.01 0.67 1.02 0.34 0 0 Z " fill="#BFC394" transform="translate(99,163)"/>
<path d="M0 0 C0.66 0 1.32 0 2 0 C2 0.99 2 1.98 2 3 C3.65 3.33 5.3 3.66 7 4 C6.01 4.66 5.02 5.32 4 6 C3.27617533 8.05925139 3.27617533 8.05925139 3 10 C3.66 10.33 4.32 10.66 5 11 C4.01 11 3.02 11 2 11 C2 9.02 2 7.04 2 5 C1.34 5 0.68 5 0 5 C-0.5625 3.0625 -0.5625 3.0625 -1 1 C-0.67 0.67 -0.34 0.34 0 0 Z " fill="#6B7F85" transform="translate(92,147)"/>
<path d="M0 0 C4.60853797 0.72008406 8.67237409 2.31295939 13 4 C13 4.33 13 4.66 13 5 C9.37 4.67 5.74 4.34 2 4 C2 3.01 2 2.02 2 1 C1.34 0.67 0.68 0.34 0 0 Z " fill="#F6D45B" transform="translate(206,95)"/>
<path d="M0 0 C1.65 0 3.3 0 5 0 C5 0.66 5 1.32 5 2 C5.66 2.33 6.32 2.66 7 3 C7 3.66 7 4.32 7 5 C4.36 5 1.72 5 -1 5 C-0.67 3.35 -0.34 1.7 0 0 Z " fill="#364547" transform="translate(130,214)"/>
<path d="M0 0 C0.66 2.31 1.32 4.62 2 7 C1.01 6.67 0.02 6.34 -1 6 C-1 5.34 -1 4.68 -1 4 C-2.98 4.33 -4.96 4.66 -7 5 C-6 2 -6 2 -4.0625 0.8125 C-2 0 -2 0 0 0 Z " fill="#324751" transform="translate(102,187)"/>
<path d="M0 0 C0.33 0 0.66 0 1 0 C1.09765625 6.15234375 1.09765625 6.15234375 1 8 C0.67 8.33 0.34 8.66 0 9 C-0.36760731 11.32817964 -0.70241581 13.6618385 -1 16 C-1.66 16 -2.32 16 -3 16 C-2.69075786 13.89535207 -2.3774944 11.7912947 -2.0625 9.6875 C-1.88847656 8.51574219 -1.71445313 7.34398437 -1.53515625 6.13671875 C-1 3 -1 3 0 0 Z " fill="#F5D452" transform="translate(198,139)"/>
<path d="M0 0 C1.2942471 2.58849421 0.81710662 3.70980086 0.1875 6.5 C0.01605469 7.2940625 -0.15539062 8.088125 -0.33203125 8.90625 C-1 11 -1 11 -3 13 C-3.27429625 7.60550707 -3.36055646 4.48074195 0 0 Z " fill="#F3BB39" transform="translate(228,223)"/>
<path d="M0 0 C0.33 0 0.66 0 1 0 C1 3.3 1 6.6 1 10 C-0.98 10.66 -2.96 11.32 -5 12 C-5 11.01 -5 10.02 -5 9 C-3.35 8.67 -1.7 8.34 0 8 C-0.66 6.35 -1.32 4.7 -2 3 C-1.34 3 -0.68 3 0 3 C0 2.01 0 1.02 0 0 Z " fill="#6D777E" transform="translate(403,223)"/>
<path d="M0 0 C3.375 0.3125 3.375 0.3125 7 1 C7.66 1.99 8.32 2.98 9 4 C6.36 4 3.72 4 1 4 C0.67 2.68 0.34 1.36 0 0 Z " fill="#2B4150" transform="translate(335,190)"/>
<path d="M0 0 C0.33 0.66 0.66 1.32 1 2 C0.0625 4.125 0.0625 4.125 -1 6 C-1 5.01 -1 4.02 -1 3 C-3.64 3.33 -6.28 3.66 -9 4 C-8.67 3.01 -8.34 2.02 -8 1 C-5.36 0.67 -2.72 0.34 0 0 Z " fill="#394D5A" transform="translate(439,185)"/>
<path d="M0 0 C2.97 0 5.94 0 9 0 C8.34 1.32 7.68 2.64 7 4 C5.68 4 4.36 4 3 4 C2.67 3.34 2.34 2.68 2 2 C1.34 2 0.68 2 0 2 C0 1.34 0 0.68 0 0 Z " fill="#324C62" transform="translate(334,185)"/>
<path d="M0 0 C4.61513112 1.31860889 8.09897612 3.21355437 12 6 C8.37673261 7.2077558 7.35853631 6.54311128 4 5 C4 4.34 4 3.68 4 3 C2.68 2.67 1.36 2.34 0 2 C0 1.34 0 0.68 0 0 Z " fill="#F3CD49" transform="translate(219,100)"/>
<path d="M0 0 C3.96 0 7.92 0 12 0 C11.67 1.32 11.34 2.64 11 4 C10.01 4 9.02 4 8 4 C8 3.01 8 2.02 8 1 C5.36 1 2.72 1 0 1 C0 0.67 0 0.34 0 0 Z " fill="#5B636A" transform="translate(195,301)"/>
<path d="M0 0 C0.99 0.495 0.99 0.495 2 1 C2.33 1.99 2.66 2.98 3 4 C3.6599679 5.66933058 4.32558869 7.3364521 5 9 C3.02 9.99 3.02 9.99 1 11 C-0.20272819 8.59454362 -0.10071472 7.05003047 -0.0625 4.375 C-0.05347656 3.55773437 -0.04445312 2.74046875 -0.03515625 1.8984375 C-0.02355469 1.27195312 -0.01195312 0.64546875 0 0 Z " fill="#616A6E" transform="translate(156,267)"/>
<path d="M0 0 C1 2 1 2 0.375 3.9375 C-1.35198322 6.52797483 -3.2734275 7.56496184 -6 9 C-4.52307692 2.35384615 -4.52307692 2.35384615 -1.875 0.5625 C-0.946875 0.2840625 -0.946875 0.2840625 0 0 Z " fill="#F9B609" transform="translate(191,210)"/>
<path d="M0 0 C2.8125 0.125 2.8125 0.125 6 1 C7.9375 3.9375 7.9375 3.9375 9 7 C8.67 7.66 8.34 8.32 8 9 C6.66368764 7.6905332 5.33102075 6.37734515 4 5.0625 C3.2575 4.33160156 2.515 3.60070312 1.75 2.84765625 C0 1 0 1 0 0 Z " fill="#E2CA29" transform="translate(126,193)"/>
<path d="M0 0 C1.134375 0.020625 2.26875 0.04125 3.4375 0.0625 C1.9525 2.5375 1.9525 2.5375 0.4375 5.0625 C-0.2225 4.7325 -0.8825 4.4025 -1.5625 4.0625 C-2.2225 4.0625 -2.8825 4.0625 -3.5625 4.0625 C-4.2225 3.7325 -4.8825 3.4025 -5.5625 3.0625 C-3.91100715 -0.24048571 -4.06508444 0.07131727 0 0 Z " fill="#345065" transform="translate(392.5625,185.9375)"/>
<path d="M0 0 C1.89551022 -0.05441656 3.7914792 -0.09298035 5.6875 -0.125 C6.74324219 -0.14820313 7.79898437 -0.17140625 8.88671875 -0.1953125 C12.02251859 0.00141271 14.17645373 0.66942346 17 2 C15.02 2.99 15.02 2.99 13 4 C12.01 3.34 11.02 2.68 10 2 C7.49103314 1.54398739 7.49103314 1.54398739 4.8125 1.375 C3.91144531 1.30023438 3.01039063 1.22546875 2.08203125 1.1484375 C1.39496094 1.09945312 0.70789063 1.05046875 0 1 C0 0.67 0 0.34 0 0 Z " fill="#717E8A" transform="translate(334,184)"/>
<path d="M0 0 C1.65 0 3.3 0 5 0 C5.66 1.65 6.32 3.3 7 5 C4.69 4.34 2.38 3.68 0 3 C0 2.01 0 1.02 0 0 Z " fill="#364938" transform="translate(122,194)"/>
<path d="M0 0 C1.65 0.33 3.3 0.66 5 1 C3.02 1.99 3.02 1.99 1 3 C3.31 3.33 5.62 3.66 8 4 C8 4.33 8 4.66 8 5 C4.7 5.33 1.4 5.66 -2 6 C-1 2 -1 2 0 0 Z " fill="#60727D" transform="translate(386,191)"/>
<path d="M0 0 C0.99 0.33 1.98 0.66 3 1 C2.01 1.495 2.01 1.495 1 2 C1.33 2.99 1.66 3.98 2 5 C-0.31 4.67 -2.62 4.34 -5 4 C-3.36587557 2.29159719 -2.13093906 1.06546953 0 0 Z " fill="#5F7082" transform="translate(380,185)"/>
<path d="M0 0 C0.66 0 1.32 0 2 0 C3.231394 3.69418201 2.64432764 6.2056261 2 10 C-0.64 10.33 -3.28 10.66 -6 11 C-5.38125 10.71125 -4.7625 10.4225 -4.125 10.125 C-1.86674235 9.06279958 -1.86674235 9.06279958 0 7 C0.16677282 3.41656024 0.16677282 3.41656024 0 0 Z " fill="#E7CE29" transform="translate(141,175)"/>
<path d="M0 0 C0.99 0.33 1.98 0.66 3 1 C3 2.98 3 4.96 3 7 C1.02 5.35 -0.96 3.7 -3 2 C-2.01 1.34 -1.02 0.68 0 0 Z " fill="#3D5251" transform="translate(106,162)"/>
<path d="M0 0 C2.31 0 4.62 0 7 0 C6.67 0.99 6.34 1.98 6 3 C3.625 3.625 3.625 3.625 1 4 C0.34 3.34 -0.32 2.68 -1 2 C-0.67 1.34 -0.34 0.68 0 0 Z " fill="#233544" transform="translate(174,303)"/>
<path d="M0 0 C0.33 0 0.66 0 1 0 C1 2.97 1 5.94 1 9 C-0.32 9.33 -1.64 9.66 -3 10 C-2.69201674 8.51988629 -2.378482 7.04092675 -2.0625 5.5625 C-1.88847656 4.73878906 -1.71445312 3.91507813 -1.53515625 3.06640625 C-1 1 -1 1 0 0 Z " fill="#24323E" transform="translate(358,221)"/>
<path d="M0 0 C2.64 0 5.28 0 8 0 C7.67 0.99 7.34 1.98 7 3 C4.4375 4.1875 4.4375 4.1875 2 5 C1.34 3.35 0.68 1.7 0 0 Z " fill="#4E606E" transform="translate(492,225)"/>
<path d="M0 0 C2.5 2.3125 2.5 2.3125 5 5 C5 5.99 5 6.98 5 8 C0.125 5.375 0.125 5.375 -1 2 C-0.67 1.34 -0.34 0.68 0 0 Z " fill="#647382" transform="translate(353,188)"/>
<path d="M0 0 C1.2065625 0.0309375 1.2065625 0.0309375 2.4375 0.0625 C-0.3125 4.9375 -0.3125 4.9375 -2.5625 6.0625 C-2.94468767 4.40635343 -3.27645102 2.73792976 -3.5625 1.0625 C-2.5625 0.0625 -2.5625 0.0625 0 0 Z " fill="#334D63" transform="translate(496.5625,185.9375)"/>
<path d="M0 0 C0.94875 0.04125 1.8975 0.0825 2.875 0.125 C2.875 1.775 2.875 3.425 2.875 5.125 C1.885 5.62 1.885 5.62 0.875 6.125 C0.875 5.135 0.875 4.145 0.875 3.125 C-2.095 2.63 -2.095 2.63 -5.125 2.125 C-3.125 0.125 -3.125 0.125 0 0 Z " fill="#3F5152" transform="translate(133.125,176.875)"/>
<path d="M0 0 C-1.65167557 3.5786304 -3.78286492 6.74820188 -6 10 C-6 7.1003917 -5.78561862 4.78537511 -5 2 C-2 0 -2 0 0 0 Z " fill="#F8D954" transform="translate(200,118)"/>
<path d="M0 0 C0.99 0 1.98 0 3 0 C2.25 6.625 2.25 6.625 0 10 C0 6.7 0 3.4 0 0 Z " fill="#F5CA46" transform="translate(169,224)"/>
<path d="M0 0 C1.875 0.3125 1.875 0.3125 4 1 C4.66 1.99 5.32 2.98 6 4 C3.69 4.33 1.38 4.66 -1 5 C-0.67 3.35 -0.34 1.7 0 0 Z " fill="#385B68" transform="translate(492,210)"/>
<path d="M0 0 C1.32 1.32 2.64 2.64 4 4 C3.34 4 2.68 4 2 4 C2.33 5.32 2.66 6.64 3 8 C1.02 6.35 -0.96 4.7 -3 3 C-2.01 2.67 -1.02 2.34 0 2 C0 1.34 0 0.68 0 0 Z " fill="#525329" transform="translate(128,196)"/>
<path d="M0 0 C1.98 0.99 1.98 0.99 4 2 C4 2.66 4 3.32 4 4 C4.66 4.33 5.32 4.66 6 5 C5.67 5.66 5.34 6.32 5 7 C4.34 7 3.68 7 3 7 C3 6.34 3 5.68 3 5 C2.01 4.67 1.02 4.34 0 4 C0 2.68 0 1.36 0 0 Z " fill="#304553" transform="translate(345,191)"/>
<path d="M0 0 C0 0.66 0 1.32 0 2 C-1.65 2 -3.3 2 -5 2 C-5.33 2.99 -5.66 3.98 -6 5 C-6.66 4.67 -7.32 4.34 -8 4 C-7.625 2.0625 -7.625 2.0625 -7 0 C-4.3333581 -1.33332095 -2.83319697 -0.67102033 0 0 Z " fill="#273E4E" transform="translate(491,194)"/>
<path d="M0 0 C0 0.99 0 1.98 0 3 C-2.97 3.66 -5.94 4.32 -9 5 C-9 4.34 -9 3.68 -9 3 C-3.375 0 -3.375 0 0 0 Z " fill="#61727D" transform="translate(491,185)"/>
<path d="M0 0 C1.50433594 0.01353516 1.50433594 0.01353516 3.0390625 0.02734375 C3.80992187 0.03894531 4.58078125 0.05054688 5.375 0.0625 C5.375 0.3925 5.375 0.7225 5.375 1.0625 C4.09625 1.18625 2.8175 1.31 1.5 1.4375 C-1.97290936 1.75292399 -1.97290936 1.75292399 -4.625 4.0625 C-5.615 3.7325 -6.605 3.4025 -7.625 3.0625 C-7.625 2.4025 -7.625 1.7425 -7.625 1.0625 C-4.98041621 -0.25979189 -2.94738699 -0.03427194 0 0 Z " fill="#778A96" transform="translate(433.625,184.9375)"/>
<path d="M0 0 C2.475 0.99 2.475 0.99 5 2 C4 5 4 5 2 7 C1.01 5.02 0.02 3.04 -1 1 C-0.67 0.67 -0.34 0.34 0 0 Z " fill="#586974" transform="translate(368,221)"/>
<path d="M0 0 C0.99 0.33 1.98 0.66 3 1 C2.67 2.32 2.34 3.64 2 5 C0.68 5.33 -0.64 5.66 -2 6 C-2.33 5.01 -2.66 4.02 -3 3 C-2.01 2.67 -1.02 2.34 0 2 C0 1.34 0 0.68 0 0 Z " fill="#505D6C" transform="translate(126,218)"/>
<path d="M0 0 C0.66 0.33 1.32 0.66 2 1 C1.67 2.98 1.34 4.96 1 7 C0.01 6.67 -0.98 6.34 -2 6 C-2.33 5.01 -2.66 4.02 -3 3 C-2.01 2.01 -1.02 1.02 0 0 Z " fill="#2C4557" transform="translate(504,189)"/>
<path d="M0 0 C0.99 0.33 1.98 0.66 3 1 C2.25 6.75 2.25 6.75 0 9 C0 6.03 0 3.06 0 0 Z " fill="#FBCF07" transform="translate(117,160)"/>
<path d="M0 0 C0.66 0 1.32 0 2 0 C2.66 1.32 3.32 2.64 4 4 C3.34 4.66 2.68 5.32 2 6 C-0.625 5.625 -0.625 5.625 -3 5 C-2.01 4.67 -1.02 4.34 0 4 C0 2.68 0 1.36 0 0 Z " fill="#415351" transform="translate(97,158)"/>
<path d="M0 0 C1.485 0.99 1.485 0.99 3 2 C5.50896686 2.45601261 5.50896686 2.45601261 8.1875 2.625 C9.08855469 2.69976562 9.98960937 2.77453125 10.91796875 2.8515625 C11.60503906 2.90054687 12.29210937 2.94953125 13 3 C13 3.33 13 3.66 13 4 C11.04196493 4.05389087 9.08351091 4.09274217 7.125 4.125 C6.03445312 4.14820313 4.94390625 4.17140625 3.8203125 4.1953125 C1 4 1 4 -1 2 C-0.67 1.34 -0.34 0.68 0 0 Z " fill="#233441" transform="translate(164,289)"/>
<path d="M0 0 C4 4.875 4 4.875 4 6 C2.35 6 0.7 6 -1 6 C-1.33 5.01 -1.66 4.02 -2 3 C-1.34 2.01 -0.68 1.02 0 0 Z " fill="#344450" transform="translate(328,227)"/>
<path d="M0 0 C4 0 4 0 7 1 C6.67 2.32 6.34 3.64 6 5 C4.68 5 3.36 5 2 5 C1.34 3.35 0.68 1.7 0 0 Z " fill="#30414F" transform="translate(370,225)"/>
<path d="M0 0 C0.99 0 1.98 0 3 0 C2.34 2.64 1.68 5.28 1 8 C0.67 7.34 0.34 6.68 0 6 C-0.66 6 -1.32 6 -2 6 C-1.34 4.02 -0.68 2.04 0 0 Z " fill="#606E79" transform="translate(330,198)"/>
<path d="M0 0 C6.75 0.75 6.75 0.75 9 3 C6.36 3 3.72 3 1 3 C0.67 2.01 0.34 1.02 0 0 Z " fill="#445A5A" transform="translate(115,195)"/>
<path d="M0 0 C2.15377564 2.62198774 3.40072174 4.64404172 4 8 C2.68 8 1.36 8 0 8 C0 5.36 0 2.72 0 0 Z " fill="#F4C448" transform="translate(249,129)"/>
<path d="M0 0 C0.66 0 1.32 0 2 0 C0.68775452 3.93673644 -0.91910327 6.22719294 -4 9 C-3.67 7.02 -3.34 5.04 -3 3 C-2.01 3 -1.02 3 0 3 C0 2.01 0 1.02 0 0 Z " fill="#F7DA5B" transform="translate(191,128)"/>
<path d="M0 0 C0.99 0 1.98 0 3 0 C3.33 1.32 3.66 2.64 4 4 C2.68 4 1.36 4 0 4 C-0.33 3.01 -0.66 2.02 -1 1 C-0.67 0.67 -0.34 0.34 0 0 Z " fill="#233441" transform="translate(200,303)"/>
<path d="M0 0 C0 0.66 0 1.32 0 2 C-2.40545638 3.20272819 -3.94996953 3.10071472 -6.625 3.0625 C-7.85089844 3.04896484 -7.85089844 3.04896484 -9.1015625 3.03515625 C-10.04128906 3.01775391 -10.04128906 3.01775391 -11 3 C-11 2.67 -11 2.34 -11 2 C-3.375 0 -3.375 0 0 0 Z " fill="#77848F" transform="translate(400,223)"/>
<path d="M0 0 C0.6875 1.75 0.6875 1.75 1 4 C-0.3125 6.25 -0.3125 6.25 -2 8 C-2.66 8 -3.32 8 -4 8 C-2.25 2.25 -2.25 2.25 0 0 Z " fill="#F7CE58" transform="translate(182,219)"/>
<path d="M0 0 C0.99 1.32 1.98 2.64 3 4 C2.34 4 1.68 4 1 4 C0.67 4.99 0.34 5.98 0 7 C-0.99 5.68 -1.98 4.36 -3 3 C-2 1 -2 1 0 0 Z " fill="#526572" transform="translate(428,220)"/>
<path d="M0 0 C0.99 0.33 1.98 0.66 3 1 C3.33 2.65 3.66 4.3 4 6 C3.01 6 2.02 6 1 6 C0.67 4.02 0.34 2.04 0 0 Z " fill="#4F5F6B" transform="translate(377,214)"/>
<path d="M0 0 C0.66 0 1.32 0 2 0 C0.92598892 2.91517292 0.22189824 4.77810176 -2 7 C-2.99 6.67 -3.98 6.34 -5 6 C-4.34 5.01 -3.68 4.02 -3 3 C-2.01 3 -1.02 3 0 3 C0 2.01 0 1.02 0 0 Z " fill="#F0B545" transform="translate(246,200)"/>
<path d="M0 0 C0 1.65 0 3.3 0 5 C-1.875 5.625 -1.875 5.625 -4 6 C-4.66 5.34 -5.32 4.68 -6 4 C-1.125 0 -1.125 0 0 0 Z " fill="#2F485C" transform="translate(333,193)"/>
<path d="M0 0 C0.33 0.99 0.66 1.98 1 3 C0 4 0 4 -2.28515625 4.09765625 C-3.65994141 4.08025391 -3.65994141 4.08025391 -5.0625 4.0625 C-5.98160156 4.05347656 -6.90070313 4.04445312 -7.84765625 4.03515625 C-8.55792969 4.02355469 -9.26820313 4.01195312 -10 4 C-7 2 -7 2 -4.3125 2.375 C-3.549375 2.58125 -2.78625 2.7875 -2 3 C-2 2.34 -2 1.68 -2 1 C-1.34 0.67 -0.68 0.34 0 0 Z " fill="#2C4051" transform="translate(438,191)"/>
<path d="M0 0 C1.67542976 0.28604898 3.34385343 0.61781233 5 1 C5 1.66 5 2.32 5 3 C1.7 3 -1.6 3 -5 3 C-3.68 2.34 -2.36 1.68 -1 1 C-0.67 0.67 -0.34 0.34 0 0 Z " fill="#F7D419" transform="translate(136,172)"/>
<path d="M0 0 C2.475 0.99 2.475 0.99 5 2 C4.67 3.32 4.34 4.64 4 6 C3.34 6 2.68 6 2 6 C0.375 3.5 0.375 3.5 -1 1 C-0.67 0.67 -0.34 0.34 0 0 Z " fill="#525F68" transform="translate(323,226)"/>
<path d="M0 0 C0 1.98 0 3.96 0 6 C-0.66 4.68 -1.32 3.36 -2 2 C-3.98 2 -5.96 2 -8 2 C-8 1.67 -8 1.34 -8 1 C-5.23735711 0.40267181 -2.83967231 0 0 0 Z " fill="#687985" transform="translate(439,223)"/>
<path d="M0 0 C1.65 0 3.3 0 5 0 C4.525625 0.350625 4.05125 0.70125 3.5625 1.0625 C1.32126175 3.84163543 1.32882342 6.5144717 1 10 C0.67 10 0.34 10 0 10 C0 6.7 0 3.4 0 0 Z " fill="#354855" transform="translate(416,173)"/>
<path d="M0 0 C1.75 0.125 1.75 0.125 4 1 C6.25 4.0625 6.25 4.0625 8 7 C6.25 6.875 6.25 6.875 4 6 C1.75 2.9375 1.75 2.9375 0 0 Z " fill="#A5A975" transform="translate(110,173)"/>
<path d="M0 0 C0.33 0 0.66 0 1 0 C1 2.31 1 4.62 1 7 C-0.65 7.66 -2.3 8.32 -4 9 C-3.2884375 7.88625 -3.2884375 7.88625 -2.5625 6.75 C-1.22130673 4.38949985 -0.487688 2.63351523 0 0 Z " fill="#F6D76F" transform="translate(220,160)"/>
<path d="M0 0 C0.66 0 1.32 0 2 0 C3.35386936 1.65002828 4.68678142 3.3174387 6 5 C6.66 5.33 7.32 5.66 8 6 C7.67 6.66 7.34 7.32 7 8 C3.83282717 6.41641358 2.26731682 5.54736301 0.6875 2.3125 C0.460625 1.549375 0.23375 0.78625 0 0 Z " fill="#B1B789" transform="translate(88,157)"/>
<path d="M0 0 C0.99 0 1.98 0 3 0 C3.66 1.65 4.32 3.3 5 5 C3.35 4.67 1.7 4.34 0 4 C0 2.68 0 1.36 0 0 Z " fill="#435967" transform="translate(94,146)"/>
</svg>
